<?xml version="1.0" standalone="no"?>
<!DOCTYPE svg PUBLIC "-//W3C//DTD SVG 1.1//EN" "http://www.w3.org/Graphics/SVG/1.1/DTD/svg11.dtd" >
<svg xmlns="http://www.w3.org/2000/svg">
<metadata></metadata>
<defs>
<font id="yorkwhiteletterregular" horiz-adv-x="662" >
<font-face units-per-em="2048" ascent="1638" descent="-410" />
<missing-glyph horiz-adv-x="678" />
<glyph horiz-adv-x="0" />
<glyph unicode="&#xd;" horiz-adv-x="682" />
<glyph unicode=" "  horiz-adv-x="678" />
<glyph unicode="&#x09;" horiz-adv-x="678" />
<glyph unicode="&#xa0;" horiz-adv-x="678" />
<glyph unicode="!" horiz-adv-x="296" d="M-10 0v1640h316v-1640h-316z" />
<glyph unicode="&#x22;" horiz-adv-x="530" d="M-10 0v40h550v-40h-550zM-10 80v1480h550v-1480h-550zM-10 1600v40h550v-40h-550z" />
<glyph unicode="#" horiz-adv-x="690" d="M-10 0v1640h710v-1640h-710zM48 660h142v-140h112v140h88v-140h112v140h140v112h-140v88h140v112h-140v140h-112v-140h-88v140h-112v-140h-142v-112h142v-88h-142v-112zM302 772v88h88v-88h-88z" />
<glyph unicode="$" horiz-adv-x="704" d="M-10 0v40h98v1560h-98v40h350q-8 -10 -20 -29t-44 -80t-56 -124t-44 -158t-20 -187q0 -40 24 -74t62 -44q28 56 81 90t117 34q92 0 158 -66t66 -158t-66 -158t-158 -66q-128 0 -194 110q-40 -10 -65 -42t-25 -74q0 -152 46 -305t92 -231l46 -78h-350zM-10 80v1480h54 v-1480h-54z" />
<glyph unicode="%" horiz-adv-x="972" d="M-10 0v40h992v-40h-992zM-10 80v1480h992v-1480h-992zM-10 1600v40h992v-40h-992zM44 192q0 -74 94 -74h238l236 362l282 -372l40 236l-218 296l108 182l-108 174l-128 -198l-308 378v172h294l142 172h-612v-392l72 -100q-130 -54 -132 -148v-688zM220 302v526 q0 50 62 60l202 -254l-230 -364h-14q-6 0 -13 10t-7 22z" />
<glyph unicode="&#x26;" horiz-adv-x="972" d="M-10 0v1640h992v-1640h-992zM44 192q0 -74 94 -74h238l236 362l282 -372l40 236l-218 296l108 182l-108 174l-128 -198l-308 378v172h294l142 172h-612v-392l72 -100q-130 -54 -132 -148v-688zM220 302v526q0 50 62 60l202 -254l-230 -364h-14q-6 0 -13 10t-7 22z" />
<glyph unicode="'" horiz-adv-x="530" d="M-10 0v1640h550v-1640h-550z" />
<glyph unicode="(" horiz-adv-x="206" d="M40 0v1640h176v-40h-136v-1560h136v-40h-176zM120 80v1480h96v-1480h-96z" />
<glyph unicode=")" horiz-adv-x="206" d="M-10 0v40h136v1560h-136v40h176v-1640h-176zM-10 80v1480h96v-1480h-96z" />
<glyph unicode="*" horiz-adv-x="846" d="M-10 0v40q334 0 555 223t221 557t-221 557t-555 223v40q352 0 584 -234t232 -586t-232 -586t-584 -234zM-10 80v1480q318 0 527 -211t209 -529t-209 -529t-527 -211zM408 820q0 -44 32 -77t78 -33t78 33t32 77t-32 77t-78 33t-78 -33t-32 -77z" />
<glyph unicode="+" horiz-adv-x="660" d="M40 838q0 104 31 182t78 117t93 58t86 19q24 0 38 -8t16 -16l2 -8q-50 0 -85 -35t-35 -85t35 -85t85 -35t85 35t35 85q0 146 -51 290t-101 216l-52 72h370v-40h-106v-1560h106v-40h-370q8 12 22 32t49 85t62 133t49 168t22 196q0 50 -35 85t-85 35t-85 -35t-35 -85 t35 -85t85 -35q0 -30 -56 -30q-98 0 -193 92t-95 282zM604 80v1480h66v-1480h-66z" />
<glyph unicode="," horiz-adv-x="296" d="M-10 0v40h316v-40h-316zM-10 80v1480h316v-1480h-316zM-10 1600v40h316v-40h-316zM50 120h196v192h-196v-192z" />
<glyph unicode="-" horiz-adv-x="690" d="M-10 0v1640h710v-1640h-710zM48 780h594v192h-594v-192z" />
<glyph unicode="." horiz-adv-x="296" d="M-10 0v1640h316v-1640h-316zM50 120h196v192h-196v-192z" />
<glyph unicode="/" horiz-adv-x="660" d="M-10 0v1640h370q-8 -10 -22 -29t-49 -80t-62 -124t-49 -158t-22 -187q0 -50 35 -85t85 -35t85 35t35 85t-35 85t-85 35q4 32 56 32q40 0 86 -19t93 -58t78 -117t31 -182q0 -190 -95 -282t-193 -92q-24 0 -38 8t-16 16l-2 6q50 0 85 35t35 85t-35 85t-85 35t-85 -35 t-35 -85q0 -152 51 -305t101 -231l52 -78h-370z" />
<glyph unicode="0" horiz-adv-x="660" d="M-10 0v1640h680v-1640h-680zM48 238q0 -48 31 -83t77 -35h348q46 0 77 34t31 82v1166q0 48 -30 83t-76 35h-350q-46 0 -77 -34t-31 -82v-1166zM244 360v920q0 40 30 40h112q30 0 30 -40v-920q0 -16 -10 -28t-24 -12h-108q-30 0 -30 40z" />
<glyph unicode="1" horiz-adv-x="376" d="M-10 0v1640h396v-1640h-396zM50 1240h80v-1120h196v1400h-140q-4 -18 -14 -45t-45 -71t-77 -44v-120z" />
<glyph unicode="2" d="M-10 0v1640h682v-1640h-682zM50 120h564v376h-196v-136q0 -16 -11 -28t-25 -12h-100q-8 0 -17 10t-13 20l-6 10l368 880v164q0 48 -32 82t-78 34h-346q-46 0 -77 -36t-31 -84v-244h196v124q0 16 11 28t25 12h100q8 0 17 -10t13 -20l6 -10l-368 -876v-284z" />
<glyph unicode="3" d="M-10 0v1640h682v-1640h-682zM46 240q0 -50 31 -85t79 -35h344q46 0 78 35t32 83v542q0 24 -25 51t-49 41l-26 14q12 4 28 13t44 35t28 50v420q0 48 -32 82t-78 34h-346q-46 0 -77 -34t-31 -82v-204h196v80q0 16 10 28t24 12h106q32 0 32 -40v-296h-180v-204h180v-420 q0 -16 -10 -28t-24 -12h-104q-14 0 -24 12t-10 28v288h-196v-408z" />
<glyph unicode="4" horiz-adv-x="714" d="M-10 0v1640h734v-1640h-734zM48 456h352v-336h188v334h80v192h-80v874h-126l-414 -874v-190zM238 646l166 378v-378h-166z" />
<glyph unicode="5" d="M-10 0v1640h682v-1640h-682zM50 238q0 -48 31 -83t77 -35h348q46 0 77 34t31 82v630q0 48 -31 83t-77 35h-260v336h368v200h-564v-740h336q32 0 32 -40v-380q0 -40 -32 -40h-112q-28 0 -28 40v232h-196v-354z" />
<glyph unicode="6" d="M-10 0v1640h682v-1640h-682zM48 236q0 -48 31 -82t77 -34h344q46 0 79 35t33 81v618q0 48 -30 84t-76 36h-262v306q0 16 11 28t27 12h92q16 0 29 -12t13 -28v-84h196v208q0 48 -31 82t-77 34h-348q-46 0 -77 -34t-31 -82v-1168zM244 360v420q80 -4 130 -4q16 0 29 -12 t13 -28v-376q0 -16 -13 -28t-29 -12h-92q-16 0 -27 12t-11 28z" />
<glyph unicode="7" d="M-10 0v1640h682v-1640h-682zM50 120h216l348 1120v280h-564v-364h196v124q0 16 11 28t25 12h100q8 0 17 -10t13 -20l6 -10z" />
<glyph unicode="8" horiz-adv-x="660" d="M-10 0v1640h680v-1640h-680zM48 238q0 -48 31 -83t77 -35h348q46 0 77 34t31 82v548q0 24 -25 49t-51 39l-24 12q12 4 28 13t44 36t28 51v418q0 48 -30 83t-76 35h-350q-46 0 -77 -34t-31 -82v-420q0 -24 25 -49t51 -39l24 -12q-12 -4 -28 -13t-44 -36t-28 -51v-546z M244 360v380q0 40 32 40h108q32 0 32 -40v-380q0 -16 -10 -28t-24 -12h-108q-30 0 -30 40zM244 1024v256q0 40 30 40h112q30 0 30 -40v-256q0 -40 -30 -40h-112q-30 0 -30 40z" />
<glyph unicode="9" d="M-10 0v1640h682v-1640h-682zM48 236q0 -48 31 -82t77 -34h348q46 0 77 34t31 82v1168q0 48 -31 82t-77 34h-344q-46 0 -79 -35t-33 -81v-618q0 -48 30 -84t76 -36h262v-306q0 -16 -11 -28t-27 -12h-92q-16 0 -29 12t-13 28v184h-196v-308zM244 904v376q0 16 13 28t29 12 h92q16 0 27 -12t11 -28v-420q-80 4 -130 4q-16 0 -29 12t-13 28z" />
<glyph unicode=":" horiz-adv-x="654" d="M40 836l234 234l148 -146q86 160 86 264v292q32 0 78 80t78 80v-1640q-26 0 -48 25t-35 55t-32 55t-41 25v324q0 46 -22 112t-42 108l-22 44l-148 -146zM134 836l140 -140l142 140l-142 140z" />
<glyph unicode=";" horiz-adv-x="654" d="M-10 0v1640q32 0 78 -80t78 -80v-292q0 -46 21 -112t43 -108l22 -44l148 146l234 -234l-234 -234l-148 146q-86 -160 -86 -264v-324q-22 0 -41 -25t-32 -55t-35 -55t-48 -25zM238 836l142 -140l140 140l-140 140z" />
<glyph unicode="&#x3c;" horiz-adv-x="206" d="M40 0v1640h176v-1640h-176z" />
<glyph unicode="=" horiz-adv-x="660" d="M-10 0v40h106v1560h-106v40h370q-8 -10 -22 -29t-49 -80t-62 -124t-49 -158t-22 -187q0 -50 35 -85t85 -35t85 35t35 85t-35 85t-85 35q4 32 56 32q40 0 86 -19t93 -58t78 -117t31 -182q0 -190 -95 -282t-193 -92q-24 0 -38 8t-16 16l-2 6q50 0 85 35t35 85t-35 85 t-85 35t-85 -35t-35 -85q0 -152 51 -305t101 -231l52 -78h-370zM-10 80v1480h66v-1480h-66z" />
<glyph unicode="&#x3e;" horiz-adv-x="206" d="M-10 0v1640h176v-1640h-176z" />
<glyph unicode="?" horiz-adv-x="660" d="M40 838q0 104 31 182t78 117t93 58t86 19q24 0 38 -8t16 -16l2 -8q-50 0 -85 -35t-35 -85t35 -85t85 -35t85 35t35 85q0 146 -51 290t-101 216l-52 72h370v-1640h-370q8 12 22 32t49 85t62 133t49 168t22 196q0 50 -35 85t-85 35t-85 -35t-35 -85t35 -85t85 -35 q0 -30 -56 -30q-98 0 -193 92t-95 282z" />
<glyph unicode="@" horiz-adv-x="972" d="M-10 0v1640h992v-1640h-992zM36 622l138 -60l24 142l152 -68l22 -164l142 -62l-168 1044l-132 58zM42 402l886 -278l-886 398v-120zM222 834l56 310l50 -358zM436 1270l176 -76v-828l140 -62v826l176 -80v142l-492 220v-142z" />
<glyph unicode="A" horiz-adv-x="764" d="M-10 0v1640h784v-1640h-784zM50 120h192l34 220h210l32 -220h196l-232 1400h-186zM310 544l76 484l70 -484h-146z" />
<glyph unicode="B" d="M-10 0v1640h682v-1640h-682zM50 120h456q46 0 77 34t31 82v532q0 24 -27 43t-55 27l-28 8l30 10t49 27t31 45v458q0 54 -30 94t-78 40h-456v-1400zM246 320v354l76 66q96 -26 96 -74v-306q0 -40 -32 -40h-140zM246 906v414h138q34 0 34 -52v-230z" />
<glyph unicode="C" d="M-10 0v1640h682v-1640h-682zM46 236q0 -48 31 -82t77 -34l350 -2q46 0 76 36t30 84v446h-196v-324q0 -40 -30 -40h-110q-32 0 -32 40v920q0 40 32 40h110q30 0 30 -40v-214h196v338q0 48 -31 82t-77 34h-348q-46 0 -77 -35t-31 -83v-1166z" />
<glyph unicode="D" d="M-10 0v1640h682v-1640h-682zM50 120h458q46 0 76 34t30 82v1168q0 48 -30 82t-76 34h-458v-1400zM246 320v1000h140q32 0 32 -40v-920q0 -40 -32 -40h-140z" />
<glyph unicode="E" d="M-10 0v1640h682v-1640h-682zM52 120h454q48 0 79 35t31 85v408h-196v-288q0 -16 -10 -28t-24 -12h-138v520h180v204h-180v276h138q14 0 24 -12t10 -28v-80h196v204q0 48 -31 82t-77 34h-456v-1400z" />
<glyph unicode="F" d="M-10 0v1640h682v-1640h-682zM52 120h196v720h180v204h-180v276h138q14 0 24 -12t10 -28v-80h196v204q0 48 -31 82t-77 34h-456v-1400z" />
<glyph unicode="G" d="M-10 0v1640h682v-1640h-682zM48 236q0 -48 31 -82t77 -34h344q46 0 79 35t33 81v808h-292v-194l96 -4v-486q0 -16 -13 -28t-29 -12h-92q-16 0 -27 12t-11 28v920q0 16 11 28t27 12h92q16 0 29 -12t13 -28v-84h196v208q0 48 -31 82t-77 34h-348q-46 0 -77 -34t-31 -82 v-1168z" />
<glyph unicode="H" d="M-10 0v1640h682v-1640h-682zM50 120h196v702h172v-702h196v1400h-196v-474h-172v474h-196v-1400z" />
<glyph unicode="I" horiz-adv-x="296" d="M-10 0v1640h316v-1640h-316zM50 120h196v1400h-196v-1400z" />
<glyph unicode="J" d="M-10 0v1640h682v-1640h-682zM50 236q0 -48 31 -82t77 -34h350q46 0 76 34t30 82v1284h-196v-1160q0 -16 -12 -28t-26 -12h-94q-16 0 -28 12t-12 28v130h-196v-254z" />
<glyph unicode="K" horiz-adv-x="726" d="M-10 0v1640h746v-1640h-746zM50 120h196v802l226 -804l210 2l-244 864l244 536h-218l-218 -498v498h-196v-1400z" />
<glyph unicode="L" d="M-10 0v1640h682v-1640h-682zM50 120h564v360h-196v-160h-172v1200h-196v-1400z" />
<glyph unicode="M" horiz-adv-x="852" d="M-10 0v1640h872v-1640h-872zM48 120h188v810l194 -812l180 820v-818h196v1400h-236l-140 -664l-120 664h-262v-1400z" />
<glyph unicode="N" horiz-adv-x="690" d="M-10 0v1640h710v-1640h-710zM50 120h188v858l224 -858h184v1400h-188l-2 -662l-160 662h-246v-1400z" />
<glyph unicode="O" horiz-adv-x="660" d="M-10 0v1640h680v-1640h-680zM48 238q0 -48 31 -83t77 -35h348q46 0 77 34t31 82v1166q0 48 -30 83t-76 35h-350q-46 0 -77 -34t-31 -82v-1166zM244 360v920q0 40 30 40h112q30 0 30 -40v-920q0 -16 -10 -28t-24 -12h-108q-30 0 -30 40z" />
<glyph unicode="P" d="M-10 0v1640h682v-1640h-682zM50 120h196v440l368 274v552q0 54 -30 94t-78 40h-456v-1400zM246 812v508h138q14 0 24 -9t10 -23v-344z" />
<glyph unicode="Q" horiz-adv-x="660" d="M-10 0v1640h680v-1640h-680zM48 238q0 -48 31 -83t77 -35h280l26 -72h140l-46 128q56 28 56 60v1166q0 48 -30 83t-76 35h-350q-46 0 -77 -34t-31 -82v-1166zM244 360v920q0 40 30 40h112q30 0 30 -40v-872h-86l32 -88h-88q-30 0 -30 40z" />
<glyph unicode="R" horiz-adv-x="686" d="M-10 0v1640h706v-1640h-706zM48 120h196v476l46 38l144 -514h212l-188 626l154 122v536q0 48 -31 82t-77 34h-456v-1400zM244 808v512h136q14 0 25 -12t11 -28v-338z" />
<glyph unicode="S" d="M-10 0v1640h682v-1640h-682zM48 238q0 -48 31 -83t77 -35h350q46 0 76 34t30 82v628l-368 250v166q0 16 11 28t25 12h100q14 0 25 -12t11 -28v-84h196v204q0 48 -31 84t-77 36h-346q-46 0 -78 -34t-32 -82v-384l368 -260v-400q0 -16 -11 -28t-25 -12h-100q-14 0 -25 12 t-11 28v284h-196v-406z" />
<glyph unicode="T" horiz-adv-x="782" d="M-10 0v1640h802v-1640h-802zM46 1320h246v-1200h196v1200h246v200h-688v-200z" />
<glyph unicode="U" horiz-adv-x="660" d="M-10 0v1640h680v-1640h-680zM48 238q0 -48 31 -83t77 -35h348q46 0 77 34t31 82v1284h-196v-1160q0 -16 -10 -28t-24 -12h-108q-30 0 -30 40v1160h-196v-1282z" />
<glyph unicode="V" horiz-adv-x="712" d="M-10 0v1640h732v-1640h-732zM42 1520l236 -1400h166l228 1400h-202l-112 -726l-102 726h-214z" />
<glyph unicode="W" horiz-adv-x="936" d="M-10 0v1640h956v-1640h-956zM36 1520l200 -1400h134l100 636l76 -636h140l216 1400h-206l-80 -718l-90 718h-122l-74 -716l-84 716h-210z" />
<glyph unicode="X" horiz-adv-x="894" d="M-10 0v1640h914v-1640h-914zM42 120h208l196 544l196 -544h208l-294 800l214 600h-206l-118 -344l-118 344h-206l214 -600z" />
<glyph unicode="Y" horiz-adv-x="734" d="M-10 0v1640h754v-1640h-754zM40 1520l234 -660v-740h182v740l232 660h-186l-138 -432l-138 432h-186z" />
<glyph unicode="Z" d="M-10 0v1640h682v-1640h-682zM50 120h456q46 0 77 35t31 83v258h-196v-136q0 -16 -11 -28t-25 -12h-100q-8 0 -17 10t-13 20l-6 10l368 880v164q0 48 -32 82t-78 34h-454v-364h196v124q0 16 11 28t25 12h100q8 0 17 -10t13 -20l6 -10l-368 -876v-284z" />
<glyph unicode="[" horiz-adv-x="1078" d="M40 820l330 302q14 -78 75 -130t143 -52q92 0 157 65t65 157q0 86 -57 148t-141 72q112 126 224 192t252 66v-1640q-142 0 -256 68t-228 198q88 6 147 70t59 152q0 92 -65 157t-157 65q-84 0 -147 -55t-73 -137zM232 820q0 -46 33 -78t79 -32t78 32t32 78t-32 78t-78 32 t-79 -32t-33 -78zM810 818q0 -46 33 -77t79 -31t78 31t32 77t-32 78t-78 32t-79 -32t-33 -78z" />
<glyph unicode="\" horiz-adv-x="546" d="M-2 0v40h550v-40h-550zM-2 80v1480h550v-1480h-550zM-2 1600v40h550v-40h-550zM142 848q0 -54 38 -92t92 -38t92 38t38 92t-38 92t-92 38t-92 -38t-38 -92z" />
<glyph unicode="]" horiz-adv-x="1082" d="M-10 0l4 1640q140 0 250 -66t222 -192q-84 -10 -141 -72t-57 -148q0 -92 65 -157t157 -65q82 0 143 52t75 130l330 -302l-328 -302q-10 82 -73 137t-147 55q-92 0 -157 -65t-65 -157q0 -88 59 -152t147 -70q-114 -130 -228 -198t-256 -68zM46 818q0 -46 32 -77t78 -31 t79 31t33 77t-33 78t-79 32t-78 -32t-32 -78zM624 820q0 -46 32 -78t78 -32t79 32t33 78t-33 78t-79 32t-78 -32t-32 -78z" />
<glyph unicode="^" horiz-adv-x="846" d="M40 820q0 352 232 586t584 234v-40q-334 0 -555 -223t-221 -557t221 -557t555 -223v-40q-352 0 -584 234t-232 586zM120 820q0 318 209 529t527 211v-1480q-318 0 -527 211t-209 529zM218 820q0 -44 33 -77t77 -33t77 33t33 77t-33 77t-77 33t-77 -33t-33 -77z" />
<glyph unicode="_" horiz-adv-x="706" d="M-2 0v40h710v-40h-710zM-2 80v1480h710v-1480h-710zM-2 1600v40h710v-40h-710zM56 780h594v192h-594v-192z" />
<glyph unicode="`" horiz-adv-x="704" d="M-10 0v1640h350q-8 -10 -20 -29t-44 -80t-56 -124t-44 -158t-20 -187q0 -40 24 -72t62 -42q28 54 81 87t117 33q92 0 158 -66t66 -158t-66 -158t-158 -66q-128 0 -194 110q-40 -10 -65 -42t-25 -74q0 -152 46 -305t92 -231l46 -78h-350z" />
<glyph unicode="a" horiz-adv-x="764" d="M-10 0v40h784v-40h-784zM-10 80v1480h784v-1480h-784zM-10 1600v40h784v-40h-784zM50 120h192l34 220h210l32 -220h196l-232 1400h-186zM310 544l76 484l70 -484h-146z" />
<glyph unicode="b" d="M-10 0v40h682v-40h-682zM-10 80v1480h682v-1480h-682zM-10 1600v40h682v-40h-682zM50 120h456q46 0 77 34t31 82v532q0 24 -27 43t-55 27l-28 8l30 10t49 27t31 45v458q0 54 -30 94t-78 40h-456v-1400zM246 320v354l76 66q96 -26 96 -74v-306q0 -40 -32 -40h-140z M246 906v414h138q34 0 34 -52v-230z" />
<glyph unicode="c" d="M-10 0v40h682v-40h-682zM-10 80v1480h682v-1480h-682zM-10 1600v40h682v-40h-682zM46 236q0 -48 31 -82t77 -34q68 0 175 -1t175 -1q46 0 76 36t30 84v446h-196v-324q0 -40 -30 -40h-110q-32 0 -32 40v920q0 40 32 40h110q30 0 30 -40v-234h196v358q0 48 -31 82t-77 34 h-348q-46 0 -77 -35t-31 -83v-1166z" />
<glyph unicode="d" d="M-10 0v40h682v-40h-682zM-10 80v1480h682v-1480h-682zM-10 1600v40h682v-40h-682zM50 120h458q46 0 76 34t30 82v1168q0 48 -30 82t-76 34h-458v-1400zM246 320v1000h140q32 0 32 -40v-920q0 -40 -32 -40h-140z" />
<glyph unicode="e" d="M-10 0v40h682v-40h-682zM-10 80v1480h682v-1480h-682zM-10 1600v40h682v-40h-682zM52 120h454q48 0 79 35t31 85v408h-196v-288q0 -16 -10 -28t-24 -12h-138v520h180v204h-180v276h138q14 0 24 -12t10 -28v-80h196v204q0 48 -31 82t-77 34h-456v-1400z" />
<glyph unicode="f" d="M-10 0v40h682v-40h-682zM-10 80v1480h682v-1480h-682zM-10 1600v40h682v-40h-682zM52 120h196v720h180v204h-180v276h138q14 0 24 -12t10 -28v-80h196v204q0 48 -31 82t-77 34h-456v-1400z" />
<glyph unicode="g" d="M-10 0v40h682v-40h-682zM-10 80v1480h682v-1480h-682zM-10 1600v40h682v-40h-682zM48 236q0 -48 31 -82t77 -34h344q46 0 79 35t33 81v808h-292v-194l96 -4v-486q0 -16 -13 -28t-29 -12h-92q-16 0 -27 12t-11 28v920q0 16 11 28t27 12h92q16 0 29 -12t13 -28v-84h196v208 q0 48 -31 82t-77 34h-348q-46 0 -77 -34t-31 -82v-1168z" />
<glyph unicode="h" d="M-10 0v40h682v-40h-682zM-10 80v1480h682v-1480h-682zM-10 1600v40h682v-40h-682zM50 120h196v702h172v-702h196v1400h-196v-474h-172v474h-196v-1400z" />
<glyph unicode="i" horiz-adv-x="296" d="M-10 0v40h316v-40h-316zM-10 80v1480h316v-1480h-316zM-10 1600v40h316v-40h-316zM50 120h196v1400h-196v-1400z" />
<glyph unicode="j" d="M-10 0v40h682v-40h-682zM-10 80v1480h682v-1480h-682zM-10 1600v40h682v-40h-682zM50 236q0 -48 31 -82t77 -34h350q46 0 76 34t30 82v1284h-196v-1160q0 -16 -12 -28t-26 -12h-94q-16 0 -28 12t-12 28v130h-196v-254z" />
<glyph unicode="k" horiz-adv-x="726" d="M-10 0v40h746v-40h-746zM-10 80v1480h746v-1480h-746zM-10 1600v40h746v-40h-746zM50 120h196v742l226 -744l210 2l-244 804l244 596h-218l-218 -558v558h-196v-1400z" />
<glyph unicode="l" d="M-10 0v40h682v-40h-682zM-10 80v1480h682v-1480h-682zM-10 1600v40h682v-40h-682zM50 120h564v360h-196v-160h-172v1200h-196v-1400z" />
<glyph unicode="m" horiz-adv-x="852" d="M-10 0v40h872v-40h-872zM-10 80v1480h872v-1480h-872zM-10 1600v40h872v-40h-872zM48 120h188v810l194 -812l180 820v-818h196v1400h-236l-140 -664l-120 664h-262v-1400z" />
<glyph unicode="n" horiz-adv-x="690" d="M-10 0v40h710v-40h-710zM-10 80v1480h710v-1480h-710zM-10 1600v40h710v-40h-710zM50 120h188v858l224 -858h184v1400h-188l-2 -662l-160 662h-246v-1400z" />
<glyph unicode="o" horiz-adv-x="660" d="M-10 0v40h680v-40h-680zM-10 80v1480h680v-1480h-680zM-10 1600v40h680v-40h-680zM48 238q0 -48 31 -83t77 -35h348q46 0 77 34t31 82v1166q0 48 -30 83t-76 35h-350q-46 0 -77 -34t-31 -82v-1166zM244 360v920q0 40 30 40h112q30 0 30 -40v-920q0 -16 -10 -28t-24 -12 h-108q-30 0 -30 40z" />
<glyph unicode="p" d="M-10 0v40h682v-40h-682zM-10 80v1480h682v-1480h-682zM-10 1600v40h682v-40h-682zM50 120h196v440l368 274v552q0 54 -30 94t-78 40h-456v-1400zM246 812v508h138q14 0 24 -9t10 -23v-344z" />
<glyph unicode="q" horiz-adv-x="660" d="M-10 0v40h478l-14 32h140l18 -32h58v-40h-680zM-10 80v1480h680v-1480h-78l-36 96q56 28 56 60v1166q0 48 -30 83t-76 35h-350q-46 0 -77 -34t-31 -82v-1166q0 -48 31 -83t77 -35h280l16 -40h-462zM-10 1600v40h680v-40h-680zM244 360v920q0 40 30 40h112q30 0 30 -40 v-872h-86l32 -88h-88q-30 0 -30 40z" />
<glyph unicode="r" horiz-adv-x="686" d="M-10 0v40h706v-40h-706zM-10 80v1480h706v-1480h-706zM-10 1600v40h706v-40h-706zM48 120h196v476l46 38l144 -514h212l-188 626l154 122v536q0 48 -31 82t-77 34h-456v-1400zM244 806v514h136q14 0 25 -12t11 -28v-338z" />
<glyph unicode="s" d="M-10 0v40h682v-40h-682zM-10 80v1480h682v-1480h-682zM-10 1600v40h682v-40h-682zM48 238q0 -48 31 -83t77 -35h350q46 0 76 34t30 82v628l-368 250v166q0 16 11 28t25 12h100q14 0 25 -12t11 -28v-84h196v204q0 48 -31 84t-77 36h-346q-46 0 -78 -34t-32 -82v-384 l368 -260v-400q0 -16 -11 -28t-25 -12h-100q-14 0 -25 12t-11 28v284h-196v-406z" />
<glyph unicode="t" horiz-adv-x="782" d="M-10 0v40h802v-40h-802zM-10 80v1480h802v-1480h-802zM-10 1600v40h802v-40h-802zM46 1320h246v-1200h196v1200h246v200h-688v-200z" />
<glyph unicode="u" d="M-10 0v40h682v-40h-682zM-10 80v1480h680v-1480h-680zM-10 1600v40h682v-40h-682zM48 238q0 -48 31 -83t77 -35h348q46 0 77 34t31 82v1284h-196v-1160q0 -16 -10 -28t-24 -12h-108q-30 0 -30 40v1160h-196v-1282z" />
<glyph unicode="v" horiz-adv-x="712" d="M-10 0v40h732v-40h-732zM-10 80v1480h732v-1480h-732zM-10 1600v40h732v-40h-732zM42 1520l236 -1400h166l228 1400h-202l-112 -726l-102 726h-214z" />
<glyph unicode="w" horiz-adv-x="936" d="M-10 0v40h956v-40h-956zM-10 80v1480h956v-1480h-956zM-10 1600v40h956v-40h-956zM36 1520l200 -1400h134l100 636l76 -636h140l216 1400h-206l-80 -718l-90 718h-122l-74 -716l-84 716h-210z" />
<glyph unicode="x" horiz-adv-x="894" d="M-10 0v40h914v-40h-914zM-10 80v1480h914v-1480h-914zM-10 1600v40h914v-40h-914zM42 120h200l204 552l204 -552h200l-294 800l214 600h-198l-126 -352l-126 352h-198l214 -600z" />
<glyph unicode="y" horiz-adv-x="734" d="M-10 0v40h754v-40h-754zM-10 80v1480h754v-1480h-754zM-10 1600v40h754v-40h-754zM40 1520l234 -660v-740h182v740l232 660h-186l-138 -432l-138 432h-186z" />
<glyph unicode="z" d="M-10 0v40h682v-40h-682zM-10 80v1480h682v-1480h-682zM-10 1600v40h682v-40h-682zM50 120h456q46 0 77 35t31 83v258h-196v-136q0 -16 -11 -28t-25 -12h-100q-8 0 -17 10t-13 20l-6 10l368 880v164q0 48 -32 82t-78 34h-454v-364h196v124q0 16 11 28t25 12h100 q8 0 17 -10t13 -20l6 -10l-368 -876v-284z" />
<glyph unicode="{" horiz-adv-x="998" d="M40 820l330 302q14 -78 75 -130t143 -52q92 0 157 65t65 157q0 86 -57 148t-141 72q192 258 396 258v-40l-136 -40v-1480l136 -40v-40q-208 0 -404 266q88 6 147 70t59 152q0 92 -65 157t-157 65q-84 0 -147 -55t-73 -137zM232 820q0 -46 33 -78t79 -32t78 32t32 78 t-32 78t-78 32t-79 -32t-33 -78zM912 110v1420l96 30v-1480z" />
<glyph unicode="|" horiz-adv-x="530" d="M-10 0v1640h550v-1640h-550zM134 848q0 -54 38 -92t92 -38t92 38t38 92t-38 92t-92 38t-92 -38t-38 -92z" />
<glyph unicode="}" horiz-adv-x="998" d="M-10 0v40l136 40v1480l-136 40v40q204 0 396 -258q-84 -10 -141 -72t-57 -148q0 -92 65 -157t157 -65q82 0 143 52t75 130l330 -302l-328 -302q-10 82 -73 137t-147 55q-92 0 -157 -65t-65 -157q0 -88 59 -152t147 -70q-196 -266 -404 -266zM-10 80v1480l96 -30v-1420z M544 820q0 -46 32 -78t78 -32t79 32t33 78t-33 78t-79 32t-78 -32t-32 -78z" />
<glyph unicode="~" horiz-adv-x="704" d="M40 844q0 92 66 158t158 66q64 0 117 -33t81 -87q38 10 62 42t24 72q0 146 -46 290t-92 216l-46 72h350v-1640h-350q20 30 51 85t82 216t51 313q0 42 -25 74t-65 42q-66 -110 -194 -110q-92 0 -158 66t-66 158z" />
<glyph unicode="&#xa1;" horiz-adv-x="1368" d="M-10 0v1640h1388v-1640h-1388zM54 666q60 -32 76 -32q10 0 20 6q-16 -22 -8 -48q6 0 17 2t17 2q-6 18 -6 34q0 52 26 84q-58 14 -82 82q-6 -4 -17 -10t-17 -8q10 -24 36 -32q-12 -2 -21 -9t-13 -14t-13 -26t-15 -31zM128 860q0 -46 24 -84t68 -38q26 0 69 30t65 30 q20 0 40 -18q-8 -44 -40 -57t-67 -8t-63 -12t-28 -67q0 -38 33 -82t56 -62t83 -64q6 -4 27 -20t30 -22t28 -20t32 -20t30 -14t32 -11t29 -3q36 0 67 26t31 58q0 18 -11 54t-11 52q0 30 32 54q32 -24 32 -54q0 -16 -11 -52t-11 -54q0 -32 31 -58t67 -26q14 0 29 3t32 11 t30 14t32 20t28 20t30 22t27 20q12 10 45 32t49 36t38 36t31 48t9 56q0 48 -28 64t-63 11t-67 10t-40 59q22 18 40 18q22 0 65 -30t69 -30q42 0 67 39t25 83q0 62 -42 188q-48 152 -88 196q-38 40 -84 40q-34 0 -55 -24t-28 -52t-25 -52t-48 -24q-14 14 -14 32q0 28 50 73 t50 97q0 34 -24 55t-72 29t-82 10t-94 2t-94 -2t-83 -10t-73 -29t-24 -55q0 -52 51 -97t51 -75q0 -14 -8 -30q-30 0 -49 24t-27 52t-29 52t-55 24q-48 0 -85 -43t-53 -83t-36 -110q-42 -140 -42 -188zM250 1268q30 40 92 40q28 0 40 -6v6q0 54 48 102q-6 0 -13 1t-13 1 q-16 -16 -16 -38q-4 8 -9 14t-15 9t-16 4t-25 3t-29 4q-10 -54 -10 -66q0 -20 14 -34q-24 8 -48 -6v-34zM388 882q0 22 13 44t35 22q14 0 37 -15t35 -15q14 0 22 8q-6 34 -57 34t-51 42q0 46 94 112q82 58 110 58q20 0 34 -14t14 -32q0 -10 -3 -30t-3 -28q0 -20 16 -28 q16 8 16 28q0 8 -5 28t-5 30q0 18 16 32t36 14q28 0 110 -58q4 -2 30 -20t34 -26t19 -27t11 -39q0 -42 -51 -42t-57 -34q8 -8 22 -8q12 0 35 15t37 15q20 0 35 -21t15 -41q0 -28 -26 -102q-2 -4 -6 -18t-6 -20t-7 -19t-8 -19t-9 -16t-11 -15t-12 -11t-15 -8t-16 -2 q-30 0 -47 41t-39 41q0 -40 25 -58t25 -36q0 -66 -126 -66h-40q-126 0 -126 66q0 18 27 36t27 58q-22 0 -41 -41t-49 -41q-20 0 -35 11t-26 34t-17 39t-14 44q-22 70 -22 98zM582 294q2 -4 2 -12t2 -12q26 2 42 24v-8q0 -10 5 -19t10 -15t19 -20l22 -22l22 22t19 20t10 15 t5 19v8q16 -22 40 -24l6 24q-66 4 -102 56q-36 -52 -102 -56zM586 876q0 -40 29 -69t69 -29t68 29t28 69t-28 68t-68 28t-69 -28t-29 -68zM944 1402q42 -42 42 -94v-6q12 6 40 6q52 0 82 -24v18q-20 12 -38 6q14 14 14 34q0 12 -10 66q-10 -2 -25 -3t-21 -2t-15 -3t-14 -5 t-10 -8t-9 -13q0 20 -24 42q-4 -4 -6 -8zM1172 714q26 -32 26 -84q0 -16 -6 -34q6 0 17 -2t17 -2q8 26 -8 48q10 -6 22 -6q14 0 74 32q-6 12 -15 31t-13 26t-13 14t-21 9q26 8 36 32q-6 2 -17 8t-17 10q-24 -68 -82 -82z" />
<glyph unicode="&#xa2;" horiz-adv-x="1368" d="M-10 0v1640h1388v-1640h-1388zM54 666q60 -32 76 -32q10 0 20 6q-16 -22 -8 -48q6 0 17 2t17 2q-6 18 -6 34q0 52 26 84q-58 14 -82 82q-6 -4 -17 -10t-17 -8q10 -24 36 -32q-12 -2 -21 -9t-13 -14t-13 -26t-15 -31zM128 860q0 -46 24 -84t68 -38q26 0 69 30t65 30 q20 0 40 -18q-8 -44 -40 -57t-67 -8t-63 -12t-28 -67q0 -38 33 -82t56 -62t83 -64q6 -4 27 -20t30 -22t28 -20t32 -20t30 -14t32 -11t29 -3q36 0 67 26t31 58q0 18 -11 54t-11 52q0 30 32 54q32 -24 32 -54q0 -16 -11 -52t-11 -54q0 -32 31 -58t67 -26q14 0 29 3t32 11 t30 14t32 20t28 20t30 22t27 20q12 10 45 32t49 36t38 36t31 48t9 56q0 48 -28 64t-63 11t-67 10t-40 59q22 18 40 18q22 0 65 -30t69 -30q42 0 67 39t25 83q0 62 -42 188q-48 152 -88 196q-38 40 -84 40q-34 0 -55 -24t-28 -52t-25 -52t-48 -24q-14 14 -14 32q0 28 50 73 t50 97q0 34 -24 55t-72 29t-82 10t-94 2t-94 -2t-83 -10t-73 -29t-24 -55q0 -52 51 -97t51 -75q0 -14 -8 -30q-30 0 -49 24t-27 52t-29 52t-55 24q-48 0 -85 -43t-53 -83t-36 -110q-42 -140 -42 -188zM250 1268q30 40 92 40q28 0 40 -6v6q0 54 48 102q-6 0 -13 1t-13 1 q-16 -16 -16 -38q-4 8 -9 14t-15 9t-16 4t-25 3t-29 4q-10 -54 -10 -66q0 -20 14 -34q-24 8 -48 -6v-34zM388 882q0 22 13 44t35 22q14 0 37 -15t35 -15q14 0 22 8q-6 34 -57 34t-51 42q0 46 94 112q82 58 110 58q20 0 34 -14t14 -32q0 -10 -3 -30t-3 -28q0 -20 16 -28 q16 8 16 28q0 8 -5 28t-5 30q0 18 16 32t36 14q28 0 110 -58q4 -2 30 -20t34 -26t19 -27t11 -39q0 -42 -51 -42t-57 -34q8 -8 22 -8q12 0 35 15t37 15q20 0 35 -21t15 -41q0 -28 -26 -102q-2 -4 -6 -18t-6 -20t-7 -19t-8 -19t-9 -16t-11 -15t-12 -11t-15 -8t-16 -2 q-30 0 -47 41t-39 41q0 -40 25 -58t25 -36q0 -66 -126 -66h-40q-126 0 -126 66q0 18 27 36t27 58q-22 0 -41 -41t-49 -41q-20 0 -35 11t-26 34t-17 39t-14 44q-22 70 -22 98zM582 294q2 -4 2 -12t2 -12q26 2 42 24v-8q0 -10 5 -19t10 -15t19 -20l22 -22l22 22t19 20t10 15 t5 19v8q16 -22 40 -24l6 24q-66 4 -102 56q-36 -52 -102 -56zM586 876q0 -40 29 -69t69 -29t68 29t28 69t-28 68t-68 28t-69 -28t-29 -68zM944 1402q42 -42 42 -94v-6q12 6 40 6q52 0 82 -24v18q-20 12 -38 6q14 14 14 34q0 12 -10 66q-10 -2 -25 -3t-21 -2t-15 -3t-14 -5 t-10 -8t-9 -13q0 20 -24 42q-4 -4 -6 -8zM1172 714q26 -32 26 -84q0 -16 -6 -34q6 0 17 -2t17 -2q8 26 -8 48q10 -6 22 -6q14 0 74 32q-6 12 -15 31t-13 26t-13 14t-21 9q26 8 36 32q-6 2 -17 8t-17 10q-24 -68 -82 -82z" />
<glyph unicode="&#xa3;" horiz-adv-x="704" d="M40 844q0 92 66 158t158 66q64 0 117 -34t81 -90q38 10 62 44t24 74q0 146 -46 290t-92 216l-46 72h350v-40h-94l-4 -1560h98v-40h-350q20 30 51 85t82 216t51 313q0 42 -25 74t-65 42q-66 -110 -194 -110q-92 0 -158 66t-66 158zM660 80v1480h54v-1480h-54z" />
<glyph unicode="&#xa4;" horiz-adv-x="1368" d="M-10 0v40h1388v-40h-1388zM-10 80v1480h1388v-1480h-1388zM-10 1600v40h1388v-40h-1388zM54 666q60 -32 76 -32q10 0 20 6q-16 -22 -8 -48q6 0 17 2t17 2q-6 18 -6 34q0 52 26 84q-58 14 -82 82q-6 -4 -17 -10t-17 -8q10 -24 36 -32q-12 -2 -21 -9t-13 -14t-13 -26 t-15 -31zM128 860q0 -46 24 -84t68 -38q26 0 69 30t65 30q20 0 40 -18q-8 -44 -40 -57t-67 -8t-63 -12t-28 -67q0 -38 33 -82t56 -62t83 -64q6 -4 27 -20t30 -22t28 -20t32 -20t30 -14t32 -11t29 -3q36 0 67 26t31 58q0 18 -11 54t-11 52q0 30 32 54q32 -24 32 -54 q0 -16 -11 -52t-11 -54q0 -32 31 -58t67 -26q14 0 29 3t32 11t30 14t32 20t28 20t30 22t27 20q12 10 45 32t49 36t38 36t31 48t9 56q0 48 -28 64t-63 11t-67 10t-40 59q22 18 40 18q22 0 65 -30t69 -30q42 0 67 39t25 83q0 62 -42 188q-48 152 -88 196q-38 40 -84 40 q-34 0 -55 -24t-28 -52t-25 -52t-48 -24q-14 14 -14 32q0 28 50 73t50 97q0 34 -24 55t-72 29t-82 10t-94 2t-94 -2t-83 -10t-73 -29t-24 -55q0 -52 51 -97t51 -75q0 -14 -8 -30q-30 0 -49 24t-27 52t-29 52t-55 24q-48 0 -85 -43t-53 -83t-36 -110q-42 -140 -42 -188z M250 1268q30 40 92 40q28 0 40 -6v6q0 54 48 102q-6 0 -13 1t-13 1q-16 -16 -16 -38q-4 8 -9 14t-15 9t-16 4t-25 3t-29 4q-10 -54 -10 -66q0 -20 14 -34q-24 8 -48 -6v-34zM388 882q0 22 13 44t35 22q14 0 37 -15t35 -15q14 0 22 8q-6 34 -57 34t-51 42q0 46 94 112 q82 58 110 58q20 0 34 -14t14 -32q0 -10 -3 -30t-3 -28q0 -20 16 -28q16 8 16 28q0 8 -5 28t-5 30q0 18 16 32t36 14q28 0 110 -58q4 -2 30 -20t34 -26t19 -27t11 -39q0 -42 -51 -42t-57 -34q8 -8 22 -8q12 0 35 15t37 15q20 0 35 -21t15 -41q0 -28 -26 -102q-2 -4 -6 -18 t-6 -20t-7 -19t-8 -19t-9 -16t-11 -15t-12 -11t-15 -8t-16 -2q-30 0 -47 41t-39 41q0 -40 25 -58t25 -36q0 -66 -126 -66h-40q-126 0 -126 66q0 18 27 36t27 58q-22 0 -41 -41t-49 -41q-20 0 -35 11t-26 34t-17 39t-14 44q-22 70 -22 98zM582 294q2 -4 2 -12t2 -12 q26 2 42 24v-8q0 -10 5 -19t10 -15t19 -20l22 -22l22 22t19 20t10 15t5 19v8q16 -22 40 -24l6 24q-66 4 -102 56q-36 -52 -102 -56zM586 876q0 -40 29 -69t69 -29t68 29t28 69t-28 68t-68 28t-69 -28t-29 -68zM944 1402q42 -42 42 -94v-6q12 6 40 6q52 0 82 -24v18 q-20 12 -38 6q14 14 14 34q0 12 -10 66q-10 -2 -25 -3t-21 -2t-15 -3t-14 -5t-10 -8t-9 -13q0 20 -24 42q-4 -4 -6 -8zM1172 714q26 -32 26 -84q0 -16 -6 -34q6 0 17 -2t17 -2q8 26 -8 48q10 -6 22 -6q14 0 74 32q-6 12 -15 31t-13 26t-13 14t-21 9q26 8 36 32q-6 2 -17 8 t-17 10q-24 -68 -82 -82z" />
<glyph unicode="&#xa5;" horiz-adv-x="720" d="M40 -380v1660q0 72 31 130t77 94t113 63t127 41t134 22t117 9t91 1v-1640q-24 0 -63 -3t-144 -24t-192 -56t-173 -113t-118 -184z" />
<glyph unicode="&#xa6;" horiz-adv-x="720" d="M-10 0v1640q24 0 63 3t144 24t192 56t173 113t118 184v-1660q0 -72 -31 -130t-77 -94t-113 -63t-127 -41t-134 -22t-117 -9t-91 -1z" />
<glyph unicode="&#xa7;" horiz-adv-x="690" d="M-10 0v40h710v-40h-710zM-10 80v1480h710v-1480h-710zM-10 1600v40h710v-40h-710zM48 660h142v-140h112v140h88v-140h112v140h140v112h-140v88h140v112h-140v140h-112v-140h-88v140h-112v-140h-142v-112h142v-88h-142v-112zM302 772v88h88v-88h-88z" />
<glyph unicode="&#xa8;" horiz-adv-x="296" d="M-10 0v1640h316v-1640h-316z" />
<glyph unicode="&#xa9;" horiz-adv-x="846" d="M40 820q0 352 232 586t584 234v-1640q-352 0 -584 234t-232 586zM218 820q0 -44 33 -77t77 -33t77 33t33 77t-33 77t-77 33t-77 -33t-33 -77z" />
<glyph unicode="&#xaa;" horiz-adv-x="846" d="M-10 0v1640q352 0 584 -234t232 -586t-232 -586t-584 -234zM408 820q0 -44 32 -77t78 -33t78 33t32 77t-32 77t-78 33t-78 -33t-32 -77z" />
<glyph unicode="&#xab;" horiz-adv-x="704" d="M40 836l234 234l148 -146q86 138 86 264v292q36 0 61 25t37 55t37 55t61 25v-40q-32 0 -72 -70t-62 -70v-1280q22 0 62 -70t72 -70v-40q-36 0 -61 25t-37 55t-37 55t-61 25v324q0 56 -22 122t-42 104l-22 38l-148 -146zM134 836l140 -140l142 140l-142 140zM610 192v1256 q12 0 41 56t53 56v-1480q-24 0 -53 56t-41 56z" />
<glyph unicode="&#xac;" horiz-adv-x="768" d="M20 820q0 100 71 171t169 73v124h60q0 100 71 171t171 73v208h216v-1640h-216v218q-98 2 -169 72t-73 170h-60v116q-98 2 -169 73t-71 171z" />
<glyph unicode="&#xad;" horiz-adv-x="690" d="M-10 0v1640h710v-1640h-710zM48 780h594v192h-594v-192z" />
<glyph unicode="&#xae;" horiz-adv-x="788" d="M-10 0v1640h216v-208q100 -2 171 -73t71 -171h60v-124q98 -2 169 -73t71 -171t-71 -171t-169 -73v-116h-60q-2 -100 -73 -170t-169 -72v-218h-216z" />
<glyph unicode="&#xaf;" horiz-adv-x="296" d="M-10 0v1640h316v-1640h-316z" />
<glyph unicode="&#xb0;" horiz-adv-x="296" d="M-10 0v40h316v-40h-316zM-10 80v1480h316v-1480h-316zM-10 1600v40h316v-40h-316z" />
<glyph unicode="&#xb1;" horiz-adv-x="972" d="M-10 0v40h992v-40h-992zM-10 80v1480h992v-1480h-992zM-10 1600v40h992v-40h-992zM36 622l138 -60l24 142l152 -68l22 -164l142 -62l-168 1044l-132 58zM42 402l886 -278l-886 398v-120zM222 834l56 310l50 -358zM436 1270l176 -76v-828l140 -62v826l176 -80v142 l-492 220v-142z" />
<glyph unicode="&#xb2;" horiz-adv-x="1368" d="M-10 0v1640h1388v-1640h-1388zM62 824l266 -262l262 262l-262 262zM420 470l262 -266l262 266l-262 262zM420 1178l262 -262l262 262l-262 266zM774 824l262 -262l266 262l-266 262z" />
<glyph unicode="&#xb3;" horiz-adv-x="1368" d="M-10 0v40h1388v-40h-1388zM-10 80v1480h1388v-1480h-1388zM-10 1600v40h1388v-40h-1388zM62 824l266 -262l262 262l-262 262zM420 470l262 -266l262 266l-262 262zM420 1178l262 -262l262 262l-262 266zM774 824l262 -262l266 262l-266 262z" />
<glyph unicode="&#xb4;" horiz-adv-x="884" d="M-10 0v1640h904v-1640h-904zM40 824l172 -262l170 262l-170 262zM272 470l170 -266l170 266l-170 262zM272 1178l170 -262l170 262l-170 266zM502 824l170 -262l172 262l-172 262z" />
<glyph unicode="&#xb5;" horiz-adv-x="884" d="M-10 0v40h904v-40h-904zM-10 80v1480h904v-1480h-904zM-10 1600v40h904v-40h-904zM40 824l172 -262l170 262l-170 262zM272 470l170 -266l170 266l-170 262zM272 1178l170 -262l170 262l-170 266zM502 824l170 -262l172 262l-172 262z" />
<glyph unicode="&#xb6;" horiz-adv-x="1248" d="M-10 0v1640h1268v-1640h-1268zM36 818q0 -78 55 -133t133 -55t133 55t55 133t-55 133t-133 55t-133 -55t-55 -133zM436 418q0 -78 55 -133t133 -55t133 55t55 133t-55 133t-133 55t-133 -55t-55 -133zM436 1218q0 -78 55 -133t133 -55t133 55t55 133t-55 133t-133 55 t-133 -55t-55 -133zM836 818q0 -78 55 -133t133 -55t133 55t55 133t-55 133t-133 55t-133 -55t-55 -133z" />
<glyph unicode="&#xb7;" horiz-adv-x="1248" d="M-10 0v40h1268v-40h-1268zM-10 80v1480h1268v-1480h-1268zM-10 1600v40h1268v-40h-1268zM36 818q0 -78 55 -133t133 -55t133 55t55 133t-55 133t-133 55t-133 -55t-55 -133zM436 418q0 -78 55 -133t133 -55t133 55t55 133t-55 133t-133 55t-133 -55t-55 -133zM436 1218 q0 -78 55 -133t133 -55t133 55t55 133t-55 133t-133 55t-133 -55t-55 -133zM836 818q0 -78 55 -133t133 -55t133 55t55 133t-55 133t-133 55t-133 -55t-55 -133z" />
<glyph unicode="&#xb8;" horiz-adv-x="296" d="M-10 0v1640h316v-1640h-316z" />
<glyph unicode="&#xb9;" horiz-adv-x="296" d="M-10 0v40h316v-40h-316zM-10 80v1480h316v-1480h-316zM-10 1600v40h316v-40h-316z" />
<glyph unicode="&#xba;" horiz-adv-x="296" d="M-10 0v40h316v-40h-316zM-10 80v1480h316v-1480h-316zM-10 1600v40h316v-40h-316z" />
<glyph unicode="&#xbb;" horiz-adv-x="704" d="M0 0v40q32 0 72 70t62 70v1280q-22 0 -62 70t-72 70v40q36 0 61 -25t37 -55t37 -55t61 -25v-292q0 -56 22 -122t42 -104l22 -38l148 146l234 -234l-234 -234l-148 146q-86 -138 -86 -264v-324q-36 0 -61 -25t-37 -55t-37 -55t-61 -25zM0 80v1480q24 0 53 -56t41 -56 v-1256q-12 0 -41 -56t-53 -56zM288 836l142 -140l140 140l-140 140z" />
<glyph unicode="&#xbc;" horiz-adv-x="720" d="M40 -380v1660q0 72 31 130t77 94t113 63t127 41t134 22t117 9t91 1v-40q-654 0 -654 -352v-1478q36 76 117 131t171 81t173 40t139 16l54 2v-40q-40 0 -91 -4t-151 -25t-181 -58t-159 -113t-108 -180zM108 -132v1352q0 340 622 340v-1480q-20 0 -55 -3t-129 -16t-172 -33 t-156 -63t-110 -97z" />
<glyph unicode="&#xbd;" horiz-adv-x="720" d="M-10 0v40q654 0 654 352v1478q-36 -76 -117 -131t-171 -81t-173 -40t-139 -16l-54 -2v40q40 0 91 4t151 25t181 58t159 113t108 180v-1660q0 -72 -31 -130t-77 -94t-113 -63t-127 -41t-134 -22t-117 -9t-91 -1zM-10 80v1480q20 0 55 3t129 16t172 33t156 63t110 97v-1352 q0 -340 -622 -340z" />
<glyph unicode="&#xbe;" horiz-adv-x="720" d="M-10 0v40q22 0 58 -2t133 -16t178 -40t165 -81t120 -131v1478q0 352 -654 352v40q48 0 91 -1t117 -9t134 -22t127 -41t113 -63t77 -94t31 -130v-1660q-30 104 -108 180t-159 113t-181 58t-151 25t-91 4zM-10 80v1480q622 0 622 -340v-1352q-32 54 -107 96t-161 63 t-167 34t-133 15z" />
<glyph unicode="&#xbf;" horiz-adv-x="720" d="M40 360v1660q30 -104 108 -180t159 -113t181 -58t151 -25t91 -4v-40q-22 0 -58 2t-133 16t-178 40t-165 81t-120 131v-1478q0 -352 654 -352v-40q-48 0 -91 1t-117 9t-134 22t-127 41t-113 63t-77 94t-31 130zM108 420v1352q32 -54 107 -96t161 -63t167 -34t133 -15 l54 -4v-1480q-622 0 -622 340z" />
<glyph unicode="&#xc0;" horiz-adv-x="1938" d="M40 -412l368 630l-368 596h912v-860q246 -44 503 -142t459 -224h-1874zM1012 0v1640h936v-1640h-34q18 -10 30 -20l-40 20h-68q46 -20 106 -72q-80 48 -122 72h-64q116 -50 186 -110q-90 54 -204 110h-62q160 -70 268 -154q-166 96 -296 154h-58q224 -90 352 -194 q-232 130 -392 194h-52q282 -120 440 -234q-290 160 -498 234h-44q348 -136 538 -274q-346 188 -616 274h-36q404 -140 650 -316q-402 224 -758 316h-20q482 -144 774 -356q-460 258 -916 356zM1204 1168q0 -28 18 -46t44 -18q34 0 52 24h126q-8 -186 -8 -306q0 -106 4 -258 t8 -252l6 -98l28 -72l32 72q18 370 18 608l-10 306h126q18 -24 50 -24q26 0 45 18t19 46t-19 46t-45 18q-30 0 -50 -26h-126v206q24 18 24 52q0 28 -18 46t-44 18q-28 0 -46 -18t-18 -46q0 -34 24 -52v-206h-126q-20 26 -52 26q-26 0 -44 -18t-18 -46z" />
<glyph unicode="&#xc1;" horiz-adv-x="1938" d="M-10 0v1640h936v-1640q-456 -98 -916 -356q292 212 774 356h-20q-356 -92 -758 -316q246 176 650 316h-36q-270 -86 -616 -274q190 138 538 274h-48q-196 -70 -494 -234q158 114 440 234h-52q-160 -64 -392 -194q128 104 352 194h-58q-148 -66 -300 -154q102 80 272 154 h-62q-114 -56 -204 -110q70 60 186 110h-64q-42 -24 -122 -72q60 52 106 72h-68q-4 0 -44 -20l34 20h-34zM24 -412q202 126 459 224t503 142v860h912l-368 -596l368 -630h-1874zM176 1168q0 -28 18 -46t46 -18q32 0 50 24h126q-10 -186 -10 -306q0 -106 5 -258t9 -252l4 -98 l32 -72l28 72q18 370 18 608l-8 306h126q18 -24 52 -24q26 0 44 18t18 46t-18 46t-44 18q-32 0 -52 -26h-126v206q24 18 24 52q0 28 -19 46t-45 18t-44 -18t-18 -46q0 -34 24 -52v-206h-126q-20 26 -50 26q-28 0 -46 -18t-18 -46z" />
<glyph unicode="&#xc2;" horiz-adv-x="1938" d="M40 826l368 596l-368 630h1874q-202 -126 -459 -224t-503 -142v-860h-912zM1012 0v1640q456 98 916 356q-292 -212 -774 -356h20q356 92 758 316q-246 -176 -650 -316h36q270 86 616 274q-190 -138 -538 -274h48q196 70 494 234q-158 -114 -440 -234h52q160 64 392 194 q-128 -104 -352 -194h58q148 66 300 154q-102 -80 -272 -154h62q114 56 204 110q-70 -60 -186 -110h64q42 24 122 72q-60 -52 -106 -72h68q4 0 44 20l-34 -20h34v-1640h-936zM1204 1138q0 -26 18 -45t46 -19q32 0 50 24h126q-10 -186 -10 -306q0 -106 5 -258t9 -250l4 -100 l32 -72l28 72q18 370 18 608l-8 306h126q18 -24 52 -24q26 0 44 18t18 46t-18 46t-44 18q-32 0 -52 -26h-126v206q24 18 24 52q0 26 -19 45t-45 19t-44 -18t-18 -46q0 -34 24 -52v-206h-126q-20 26 -50 26q-28 0 -46 -19t-18 -45z" />
<glyph unicode="&#xc3;" horiz-adv-x="1938" d="M-10 0v1640h34q-22 10 -34 20q40 -20 44 -20h68q-46 20 -106 72q80 -48 122 -72h64q-116 50 -186 110q90 -54 204 -110h62q-170 74 -272 154q152 -88 300 -154h58q-224 90 -352 194q232 -130 392 -194h52q-282 120 -440 234q298 -164 494 -234h48q-348 136 -538 274 q346 -188 616 -274h36q-404 140 -650 316q402 -224 758 -316h20q-482 144 -774 356q460 -258 916 -356v-1640h-936zM24 2052h1874l-368 -630l368 -596h-912v860q-246 44 -503 142t-459 224zM176 1138q0 -28 18 -46t44 -18q34 0 52 24h126q-8 -186 -8 -306q0 -106 4 -258 t8 -250l6 -100l28 -72l32 72q18 370 18 608l-10 306h126q18 -24 50 -24q26 0 45 19t19 45t-19 45t-45 19q-30 0 -50 -26h-126v206q24 18 24 52q0 28 -18 46t-44 18q-28 0 -46 -19t-18 -45q0 -34 24 -52v-206h-126q-20 26 -52 26q-26 0 -44 -18t-18 -46z" />
<glyph unicode="&#xc4;" horiz-adv-x="1938" d="M40 -412l368 630l-368 596h912v-860q246 -44 503 -142t459 -224h-1874zM1012 0v1640h936v-40h-896v-1560h896v-40h-34q18 -10 30 -20l-40 20h-68q46 -20 106 -72q-80 48 -122 72h-64q116 -50 186 -110q-90 54 -204 110h-62q160 -70 268 -154q-166 96 -296 154h-58 q224 -90 352 -194q-232 130 -392 194h-52q282 -120 440 -234q-290 160 -498 234h-44q348 -136 538 -274q-346 188 -616 274h-36q404 -140 650 -316q-402 224 -758 316h-20q482 -144 774 -356q-460 258 -916 356zM1092 80v1480h856v-1480h-856zM1204 1168q0 -28 18 -46 t44 -18q34 0 52 24h126q-8 -186 -8 -306q0 -106 4 -258t8 -252l6 -98l28 -72l32 72q18 370 18 608l-10 306h126q18 -24 50 -24q26 0 45 18t19 46t-19 46t-45 18q-30 0 -50 -26h-126v206q24 18 24 52q0 28 -18 46t-44 18q-28 0 -46 -18t-18 -46q0 -34 24 -52v-206h-126 q-20 26 -52 26q-26 0 -44 -18t-18 -46z" />
<glyph unicode="&#xc5;" horiz-adv-x="1938" d="M-10 0v40h896v1560h-896v40h936v-1640q-456 -98 -916 -356q292 212 774 356h-20q-356 -92 -758 -316q246 176 650 316h-36q-270 -86 -616 -274q190 138 538 274h-48q-196 -70 -494 -234q158 114 440 234h-52q-160 -64 -392 -194q128 104 352 194h-58q-148 -66 -300 -154 q102 80 272 154h-62q-114 -56 -204 -110q70 60 186 110h-64q-42 -24 -122 -72q60 52 106 72h-68q-4 0 -44 -20l34 20h-34zM-10 80v1480h856v-1480h-856zM24 -412q202 126 459 224t503 142v860h912l-368 -596l368 -630h-1874zM176 1168q0 -28 18 -46t46 -18q32 0 50 24h126 q-10 -186 -10 -306q0 -106 5 -258t9 -252l4 -98l32 -72l28 72q18 370 18 608l-8 306h126q18 -24 52 -24q26 0 44 18t18 46t-18 46t-44 18q-32 0 -52 -26h-126v206q24 18 24 52q0 28 -19 46t-45 18t-44 -18t-18 -46q0 -34 24 -52v-206h-126q-20 26 -50 26q-28 0 -46 -18 t-18 -46z" />
<glyph unicode="&#xc6;" horiz-adv-x="1938" d="M40 826l368 596l-368 630h1874q-202 -126 -459 -224t-503 -142v-860h-912zM1012 0v1640q456 98 916 356q-292 -212 -774 -356h20q356 92 758 316q-246 -176 -650 -316h36q270 86 616 274q-190 -138 -538 -274h48q196 70 494 234q-158 -114 -440 -234h52q160 64 392 194 q-128 -104 -352 -194h58q148 66 300 154q-102 -80 -272 -154h62q114 56 204 110q-70 -60 -186 -110h64q42 24 122 72q-60 -52 -106 -72h68q4 0 44 20l-34 -20h34v-40h-896v-1560h896v-40h-936zM1092 80v1480h856v-1480h-856zM1204 1138q0 -26 18 -45t46 -19q32 0 50 24h126 q-10 -186 -10 -306q0 -106 5 -258t9 -250l4 -100l32 -72l28 72q18 370 18 608l-8 306h126q18 -24 52 -24q26 0 44 18t18 46t-18 46t-44 18q-32 0 -52 -26h-126v206q24 18 24 52q0 26 -19 45t-45 19t-44 -18t-18 -46q0 -34 24 -52v-206h-126q-20 26 -50 26q-28 0 -46 -19 t-18 -45z" />
<glyph unicode="&#xc7;" horiz-adv-x="1938" d="M-10 0v40h896v1560h-896v40h34q-22 10 -34 20q40 -20 44 -20h68q-46 20 -106 72q80 -48 122 -72h64q-116 50 -186 110q90 -54 204 -110h62q-170 74 -272 154q152 -88 300 -154h58q-224 90 -352 194q232 -130 392 -194h52q-282 120 -440 234q298 -164 494 -234h48 q-348 136 -538 274q346 -188 616 -274h36q-404 140 -650 316q402 -224 758 -316h20q-482 144 -774 356q460 -258 916 -356v-1640h-936zM-10 80v1480h856v-1480h-856zM24 2052h1874l-368 -630l368 -596h-912v860q-246 44 -503 142t-459 224zM176 1138q0 -28 18 -46t44 -18 q34 0 52 24h126q-8 -186 -8 -306q0 -106 4 -258t8 -250l6 -100l28 -72l32 72q18 370 18 608l-10 306h126q18 -24 50 -24q26 0 45 19t19 45t-19 45t-45 19q-30 0 -50 -26h-126v206q24 18 24 52q0 28 -18 46t-44 18q-28 0 -46 -19t-18 -45q0 -34 24 -52v-206h-126 q-20 26 -52 26q-26 0 -44 -18t-18 -46z" />
<glyph unicode="&#xc8;" horiz-adv-x="632" d="M-10 0v1640h652v-1640h-652zM36 1138q0 -28 18 -46t44 -18q34 0 52 24h126q-8 -186 -8 -306q0 -106 4 -258t8 -250l6 -100l28 -72l32 72q18 370 18 608l-10 306h126q18 -24 50 -24q26 0 45 19t19 45t-19 45t-45 19q-30 0 -50 -26h-126v206q24 18 24 52q0 28 -18 46 t-44 18q-28 0 -46 -19t-18 -45q0 -34 24 -52v-206h-126q-20 26 -52 26q-26 0 -44 -18t-18 -46z" />
<glyph unicode="&#xc9;" horiz-adv-x="632" d="M-10 0v40h652v-40h-652zM-10 80v1480h652v-1480h-652zM-10 1600v40h652v-40h-652zM36 1138q0 -28 18 -46t44 -18q34 0 52 24h126q-8 -186 -8 -306q0 -106 4 -258t8 -250l6 -100l28 -72l32 72q18 370 18 608l-10 306h126q18 -24 50 -24q26 0 45 19t19 45t-19 45t-45 19 q-30 0 -50 -26h-126v206q24 18 24 52q0 28 -18 46t-44 18q-28 0 -46 -19t-18 -45q0 -34 24 -52v-206h-126q-20 26 -52 26q-26 0 -44 -18t-18 -46z" />
<glyph unicode="&#xca;" horiz-adv-x="1564" d="M-10 0v1640h590q-210 -152 -482 -208v-1432h-108zM158 -234v1640h48q158 62 402 194q-128 -104 -352 -194h58q148 66 300 154q-100 -80 -266 -154h56q114 56 204 110q-68 -60 -180 -110h58q42 24 122 72q-56 -52 -100 -72h62q4 0 44 20l-18 -20h372q-12 10 -18 20 q40 -20 44 -20h62q-44 20 -100 72q80 -48 122 -72h58q-112 50 -180 110q90 -54 204 -110h56q-166 74 -266 154q152 -88 300 -154h58q-224 90 -352 194q244 -132 402 -194h48v-1640h-1248zM352 -42q0 -74 94 -74h238l236 362l282 -372l40 236l-218 296l108 182l-108 174 l-128 -198l-308 378v172h294l142 172h-612v-392l72 -100q-130 -54 -132 -148v-688zM528 68v526q0 50 62 60l202 -254l-230 -364h-14q-6 0 -13 10t-7 22zM984 1640h590v-1640h-108v1432q-272 56 -482 208z" />
<glyph unicode="&#xcb;" horiz-adv-x="1564" d="M-10 0v40h108v-40h-108zM-10 80v1480h450q-152 -96 -342 -128v-1352h-108zM-10 1600v40h610l-80 -40h-530zM158 -234v1640h58q160 64 392 194q-128 -104 -352 -194h58q148 66 300 154q-102 -80 -272 -154h62q114 56 204 110q-70 -60 -186 -110h64q42 24 122 72 q-60 -52 -106 -72h68q4 0 44 20l-24 -20h384q-16 10 -24 20q40 -20 44 -20h68q-46 20 -106 72q80 -48 122 -72h64q-116 50 -186 110q90 -54 204 -110h62q-170 74 -272 154q152 -88 300 -154h58q-224 90 -352 194q232 -130 392 -194h58v-1640h-1248zM198 -194h1168v1560 h-1168v-1560zM238 -154v1480h1088v-1480h-1088zM352 -42q0 -74 94 -74h238l236 362l282 -372l40 236l-218 296l108 182l-108 174l-128 -198l-308 378v172h294l142 172h-612v-392l72 -100q-130 -54 -132 -148v-688zM528 68v526q0 50 62 60l202 -254l-230 -364h-14 q-6 0 -13 10t-7 22zM964 1640h610v-40h-530zM1124 1560h450v-1480h-108v1352q-190 32 -342 128zM1466 0v40h108v-40h-108z" />
<glyph unicode="&#xcc;" horiz-adv-x="1146" d="M40 -412l368 630l-368 596h912v-860q246 -44 503 -142t459 -224h-1874zM1012 0v1640h144v-1640q480 -142 772 -356q-460 258 -916 356zM1174 0h108q404 -140 650 -316q-402 224 -758 316zM1318 0h78q348 -136 538 -274q-346 188 -616 274zM1440 0h58q282 -120 440 -234 q-290 160 -498 234zM1550 0h40q224 -90 352 -194q-232 130 -392 194zM1648 0h28q160 -70 268 -154q-166 96 -296 154zM1738 0h18q116 -50 186 -110q-90 54 -204 110zM1820 0h16q46 -20 106 -72q-80 48 -122 72zM1904 0h10q18 -10 30 -20z" />
<glyph unicode="&#xcd;" horiz-adv-x="1136" d="M-808 -20l30 20h10zM-808 -154q108 84 268 154h28q-130 -58 -296 -154zM-806 -72q60 52 106 72h16q-42 -24 -122 -72zM-806 -110q70 60 186 110h18q-114 -56 -204 -110zM-806 -194q128 104 352 194h40q-160 -64 -392 -194zM-802 -234q158 114 440 234h58 q-208 -74 -498 -234zM-798 -274q190 138 538 274h78q-270 -86 -616 -274zM-796 -316q246 176 650 316h108q-356 -92 -758 -316zM-792 -356q292 214 772 356v1640h144v-1640q-456 -98 -916 -356zM-778 -412q202 126 459 224t503 142v860h912l-368 -596l368 -630h-1874z" />
<glyph unicode="&#xce;" horiz-adv-x="1146" d="M40 -412l368 630l-368 596h912v-860q246 -44 503 -142t459 -224h-1874zM1012 0v1640h144v-40h-102v-1560h102v-40q480 -142 772 -356q-460 258 -916 356zM1094 80v1480h62v-1480h-62zM1174 0h108q404 -140 650 -316q-402 224 -758 316zM1318 0h78q348 -136 538 -274 q-346 188 -616 274zM1440 0h58q282 -120 440 -234q-290 160 -498 234zM1550 0h40q224 -90 352 -194q-232 130 -392 194zM1648 0h28q160 -70 268 -154q-166 96 -296 154zM1738 0h18q116 -50 186 -110q-90 54 -204 110zM1820 0h16q46 -20 106 -72q-80 48 -122 72zM1904 0h10 q18 -10 30 -20z" />
<glyph unicode="&#xcf;" horiz-adv-x="1146" d="M-798 -20l30 20h10zM-798 -154q108 84 268 154h28q-130 -58 -296 -154zM-796 -72q60 52 106 72h16q-42 -24 -122 -72zM-796 -110q70 60 186 110h18q-114 -56 -204 -110zM-796 -194q128 104 352 194h40q-160 -64 -392 -194zM-792 -234q158 114 440 234h58 q-208 -74 -498 -234zM-788 -274q190 138 538 274h78q-270 -86 -616 -274zM-786 -316q246 176 650 316h108q-356 -92 -758 -316zM-782 -356q292 214 772 356v40h106v1560h-106v40h144v-1640q-456 -98 -916 -356zM-768 -412q202 126 459 224t503 142v860h912l-368 -596 l368 -630h-1874zM-10 80v1480h66v-1480h-66z" />
<glyph unicode="&#xd0;" horiz-adv-x="1146" d="M40 826l368 596l-368 630h1874q-202 -126 -459 -224t-503 -142v-860h-912zM1012 0v1640q456 98 916 356q-292 -214 -772 -356v-1640h-144zM1174 1640q356 92 758 316q-246 -176 -650 -316h-108zM1318 1640q270 86 616 274q-190 -138 -538 -274h-78zM1440 1640 q208 74 498 234q-158 -114 -440 -234h-58zM1550 1640q160 64 392 194q-128 -104 -352 -194h-40zM1648 1640q130 58 296 154q-108 -84 -268 -154h-28zM1738 1640q114 56 204 110q-70 -60 -186 -110h-18zM1820 1640q42 24 122 72q-60 -52 -106 -72h-16zM1904 1640l40 20 l-30 -20h-10z" />
<glyph unicode="&#xd1;" horiz-adv-x="1146" d="M-798 1660l40 -20h-10q-18 10 -30 20zM-798 1794q166 -96 296 -154h-28q-160 70 -268 154zM-796 1712q80 -48 122 -72h-16q-46 20 -106 72zM-796 1750q90 -54 204 -110h-18q-116 50 -186 110zM-796 1834q232 -130 392 -194h-40q-224 90 -352 194zM-792 1874 q290 -160 498 -234h-58q-282 120 -440 234zM-788 1914q346 -188 616 -274h-78q-348 136 -538 274zM-786 1956q402 -224 758 -316h-108q-404 140 -650 316zM-782 1996q460 -258 916 -356v-1640h-144v1640q-480 142 -772 356zM-768 2052h1874l-368 -630l368 -596h-912v860 q-246 44 -503 142t-459 224z" />
<glyph unicode="&#xd2;" horiz-adv-x="1146" d="M40 826l368 596l-368 630h1874q-202 -126 -459 -224t-503 -142v-860h-912zM1012 0v1640q456 98 916 356q-292 -214 -772 -356v-40h-102v-1560h102v-40h-144zM1094 80v1480h62v-1480h-62zM1174 1640q356 92 758 316q-246 -176 -650 -316h-108zM1318 1640q270 86 616 274 q-190 -138 -538 -274h-78zM1440 1640q208 74 498 234q-158 -114 -440 -234h-58zM1550 1640q160 64 392 194q-128 -104 -352 -194h-40zM1648 1640q130 58 296 154q-108 -84 -268 -154h-28zM1738 1640q114 56 204 110q-70 -60 -186 -110h-18zM1820 1640q42 24 122 72 q-60 -52 -106 -72h-16zM1904 1640l40 20l-30 -20h-10z" />
<glyph unicode="&#xd3;" horiz-adv-x="1146" d="M-798 1660l40 -20h-10q-18 10 -30 20zM-798 1794q166 -96 296 -154h-28q-160 70 -268 154zM-796 1712q80 -48 122 -72h-16q-46 20 -106 72zM-796 1750q90 -54 204 -110h-18q-116 50 -186 110zM-796 1834q232 -130 392 -194h-40q-224 90 -352 194zM-792 1874 q290 -160 498 -234h-58q-282 120 -440 234zM-788 1914q346 -188 616 -274h-78q-348 136 -538 274zM-786 1956q402 -224 758 -316h-108q-404 140 -650 316zM-782 1996q460 -258 916 -356v-1640h-144v40h102v1560h-102v40q-480 142 -772 356zM-768 2052h1874l-368 -630 l368 -596h-912v860q-246 44 -503 142t-459 224zM-10 80v1480h62v-1480h-62z" />
<glyph unicode="&#xd4;" horiz-adv-x="720" d="M-10 0v1640q48 0 91 -1t117 -9t134 -22t127 -41t113 -63t77 -94t31 -130v-1660q-30 104 -108 180t-159 113t-181 58t-151 25t-91 4z" />
<glyph unicode="&#xd5;" horiz-adv-x="720" d="M40 360v1660q30 -104 108 -180t159 -113t181 -58t151 -25t91 -4v-1640q-48 0 -91 1t-117 9t-134 22t-127 41t-113 63t-77 94t-31 130z" />
<glyph unicode="&#xd6;" horiz-adv-x="1104" d="M-2 0v1640h1108v-1640h-1108zM38 752q0 -148 162 -148q0 94 96 94q34 0 57 -40t25 -90h-100v-112h212q-8 -86 -92 -126q6 -20 33 -41t59 -21q14 -84 60 -132q52 54 64 132q30 0 57 21t33 41q-84 38 -92 126h208v112h-98q2 50 26 90t58 40q96 0 96 -96q162 0 162 150 q0 100 -56 144t-116 44q-94 0 -167 -112t-75 -260h-56q4 90 66 286t62 290q0 28 -4 56t-10 52t-16 48t-19 42t-23 39l-22 33t-23 29t-21 24t-19 20l-15 15q-2 -2 -18 -19t-25 -27t-27 -34t-29 -42t-26 -47t-24 -56t-15 -62t-6 -69q0 -94 62 -291t66 -287h-56q-2 148 -75 260 t-167 112q-60 0 -116 -44t-56 -144z" />
<glyph unicode="&#xd7;" horiz-adv-x="1108" d="M-2 0v40h1112v-40h-1112zM-2 80v1480h1108v-1480h-1108zM-2 1600v40h1112v-40h-1112zM38 752q0 -148 162 -148q0 94 96 94q34 0 57 -40t25 -90h-100v-112h212q-8 -86 -92 -126q6 -20 33 -41t59 -21q14 -84 60 -132q52 54 64 132q30 0 57 21t33 41q-84 38 -92 126h208v112 h-98q2 50 26 90t58 40q96 0 96 -96q162 0 162 150q0 100 -56 144t-116 44q-94 0 -167 -112t-75 -260h-56q4 90 66 286t62 290q0 28 -4 56t-10 52t-16 48t-19 42t-23 39l-22 33t-23 29t-21 24t-19 20l-15 15q-2 -2 -18 -19t-25 -27t-27 -34t-29 -42t-26 -47t-24 -56t-15 -62 t-6 -69q0 -94 62 -291t66 -287h-56q-2 148 -75 260t-167 112q-60 0 -116 -44t-56 -144z" />
<glyph unicode="&#xd8;" horiz-adv-x="974" d="M40 820q62 114 153 198t177 123t162 61t122 26l46 2q-6 32 -21 82t-77 161t-142 167h524v-1640h-524q80 56 140 159t80 177l20 74q-10 0 -26 1t-66 9t-99 22t-116 45t-126 73t-121 109t-106 151zM372 820q0 -58 41 -99t99 -41t99 41t41 99t-41 99t-99 41t-99 -41t-41 -99 z" />
<glyph unicode="&#xd9;" horiz-adv-x="974" d="M-10 0v1640h524q-80 -56 -140 -159t-80 -177l-20 -74q18 0 49 -3t118 -25t165 -61t172 -123t156 -198q-62 -114 -152 -198t-176 -123t-162 -61t-124 -26l-46 -2q6 -32 21 -82t77 -161t142 -167h-524zM322 820q0 -58 41 -99t99 -41t99 41t41 99t-41 99t-99 41t-99 -41 t-41 -99z" />
<glyph unicode="&#xda;" horiz-adv-x="974" d="M40 820q62 114 153 198t177 123t162 61t122 26l46 2q-6 32 -21 82t-77 161t-142 167h524v-40h-136v-1560h136v-40h-524q80 56 140 159t80 177l20 74q-10 0 -26 1t-66 9t-99 22t-116 45t-126 73t-121 109t-106 151zM372 820q0 -58 41 -99t99 -41t99 41t41 99t-41 99 t-99 41t-99 -41t-41 -99zM888 80v1480h96v-1480h-96z" />
<glyph unicode="&#xdb;" horiz-adv-x="974" d="M-10 0v40h136v1560h-136v40h524q-80 -56 -140 -159t-80 -177l-20 -74q18 0 49 -3t118 -25t165 -61t172 -123t156 -198q-62 -114 -152 -198t-176 -123t-162 -61t-124 -26l-46 -2q6 -32 21 -82t77 -161t142 -167h-524zM-10 80v1480h96v-1480h-96zM322 820q0 -58 41 -99 t99 -41t99 41t41 99t-41 99t-99 41t-99 -41t-41 -99z" />
<glyph unicode="&#xdc;" horiz-adv-x="974" d="M40 820q62 114 153 199t177 126t162 64t122 27l46 4q-6 30 -21 79t-77 157t-142 164h524v-40h-432q64 -54 113 -152t67 -168l18 -70q-18 0 -50 -4t-122 -28t-170 -61t-172 -115t-152 -182q58 -104 148 -182t177 -115t166 -61t127 -28l48 -4q-6 -30 -19 -78t-64 -153 t-115 -159h432v-40h-524q80 56 140 156t80 172l20 72q-10 0 -26 1t-66 11t-99 25t-116 47t-126 74t-121 110t-106 152zM136 820q50 92 138 162t176 104t169 55t133 25l50 4q-6 30 -17 79t-52 154t-89 157h340v-1480h-340q48 52 87 149t55 169l16 72q-20 0 -54 4t-128 25 t-175 55t-170 104t-139 162zM372 820q0 -58 41 -99t99 -41t99 41t41 99t-41 99t-99 41t-99 -41t-41 -99z" />
<glyph unicode="&#xdd;" horiz-adv-x="974" d="M-10 0v40h432q-64 54 -113 152t-67 168l-18 70q18 0 50 4t123 28t171 61t172 115t150 182q-60 104 -150 182t-177 115t-165 61t-126 28l-48 4q6 30 19 78t64 153t115 159h-432v40h524q-80 -56 -140 -156t-80 -172l-20 -72q18 0 49 -3t118 -28t165 -65t172 -125t156 -199 q-62 -114 -152 -199t-176 -126t-162 -64t-124 -27l-46 -4q6 -30 21 -79t77 -157t142 -164h-524zM-10 80v1480h340q-48 -52 -87 -149t-55 -169l-16 -72q20 0 54 -4t127 -25t174 -55t171 -104t140 -162q-50 -92 -137 -162t-175 -104t-170 -55t-132 -25l-52 -4q6 -30 17 -79 t52 -154t89 -157h-340zM322 820q0 -58 41 -99t99 -41t99 41t41 99t-41 99t-99 41t-99 -41t-41 -99z" />
<glyph unicode="&#xde;" horiz-adv-x="346" d="M40 0v1640h316v-1640h-316zM118 204q0 -34 25 -59t59 -25q24 0 50 18l-116 116q-18 -26 -18 -50zM118 1430q0 -28 16 -50l118 118q-22 16 -50 16q-34 0 -59 -25t-25 -59zM152 272l118 -118q16 22 16 50q0 34 -25 59t-59 25q-28 0 -50 -16zM152 1364q26 -18 50 -18 q34 0 59 25t25 59q0 24 -18 50z" />
<glyph unicode="&#xdf;" horiz-adv-x="346" d="M-10 0v1640h316v-1640h-316zM60 204q0 -28 16 -50l118 118q-22 16 -50 16q-34 0 -59 -25t-25 -59zM60 1430q0 -34 25 -59t59 -25q24 0 50 18l-116 116q-18 -26 -18 -50zM94 138q26 -18 50 -18q34 0 59 25t25 59q0 24 -18 50zM94 1498l118 -118q16 22 16 50q0 34 -25 59 t-59 25q-28 0 -50 -16z" />
<glyph unicode="&#xe0;" horiz-adv-x="406" d="M40 0v1640h376v-40h-336v-1560h336v-40h-376zM120 80v1480h296v-1480h-296zM184 204q0 -34 25 -59t59 -25q24 0 50 18l-116 116q-18 -26 -18 -50zM184 1430q0 -28 16 -50l118 118q-22 16 -50 16q-34 0 -59 -25t-25 -59zM218 272l118 -118q16 22 16 50q0 34 -25 59t-59 25 q-28 0 -50 -16zM218 1364q26 -18 50 -18q34 0 59 25t25 59q0 24 -18 50z" />
<glyph unicode="&#xe1;" horiz-adv-x="406" d="M-10 0v40h336v1560h-336v40h376v-1640h-376zM-10 80v1480h296v-1480h-296zM54 204q0 -28 16 -50l118 118q-22 16 -50 16q-34 0 -59 -25t-25 -59zM54 1430q0 -34 25 -59t59 -25q24 0 50 18l-116 116q-18 -26 -18 -50zM88 138q26 -18 50 -18q34 0 59 25t25 59q0 24 -18 50z M88 1498l118 -118q16 22 16 50q0 34 -25 59t-59 25q-28 0 -50 -16z" />
<glyph unicode="&#xe2;" horiz-adv-x="788" d="M40 820q0 100 71 171t169 73v124h60q0 100 71 171t171 73v208h216v-40h-136v-1560h136v-40h-216v218q-98 2 -169 72t-73 170h-60v116q-98 2 -169 73t-71 171zM96 816q0 -56 40 -96t96 -40t96 40t40 96t-40 96t-96 40t-96 -40t-40 -96zM416 416q0 -40 28 -68t68 -28t68 28 t28 68t-28 68t-68 28t-68 -28t-28 -68zM416 1236q0 -40 28 -68t68 -28t68 28t28 68t-28 68t-68 28t-68 -28t-28 -68zM702 80v1480h96v-1480h-96z" />
<glyph unicode="&#xe3;" horiz-adv-x="788" d="M-10 0v40h136v1560h-136v40h216v-208q100 -2 171 -73t71 -171h60v-124q98 -2 169 -73t71 -171t-71 -171t-169 -73v-116h-60q-2 -100 -73 -170t-169 -72v-218h-216zM-10 80v1480h96v-1480h-96zM180 416q0 -40 28 -68t68 -28t68 28t28 68t-28 68t-68 28t-68 -28t-28 -68z M180 1236q0 -40 28 -68t68 -28t68 28t28 68t-28 68t-68 28t-68 -28t-28 -68zM420 816q0 -56 40 -96t96 -40t96 40t40 96t-40 96t-96 40t-96 -40t-40 -96z" />
<glyph unicode="&#xe4;" horiz-adv-x="1130" d="M-10 0v1640h1150v-1640h-1150zM30 984l332 -240l-128 -390l332 240l332 -240l-128 390l332 240h-410l-126 390l-126 -390h-410zM94 962l452 -120l-164 -86zM268 404l298 418v-202zM456 972l110 346v-456zM586 822l160 -68l118 -350zM586 862l94 100h358z" />
<glyph unicode="&#xe5;" horiz-adv-x="1130" d="M-10 0v40h1150v-40h-1150zM-10 80v1480h1150v-1480h-1150zM-10 1600v40h1150v-40h-1150zM30 984l332 -240l-128 -390l332 240l332 -240l-128 390l332 240h-410l-126 390l-126 -390h-410zM94 962l452 -120l-164 -86zM268 404l298 418v-202zM456 972l110 346v-456zM586 822 l160 -68l118 -350zM586 862l94 100h358z" />
<glyph unicode="&#xe6;" horiz-adv-x="136" d="M-10 0v1640h156v-1640h-156z" />
<glyph unicode="&#xe7;" horiz-adv-x="136" d="M-10 0v40h156v-40h-156zM-10 80v1480h156v-1480h-156zM-10 1600v40h156v-40h-156z" />
<glyph unicode="&#xe8;" horiz-adv-x="296" d="M-10 0v1640h316v-1640h-316z" />
<glyph unicode="&#xe9;" horiz-adv-x="296" d="M-10 0v40h316v-40h-316zM-10 80v1480h316v-1480h-316zM-10 1600v40h316v-40h-316z" />
<glyph unicode="&#xea;" horiz-adv-x="788" d="M40 820q0 100 71 171t169 73v124h60q0 100 71 171t171 73v208h216v-1640h-216v218q-98 2 -169 72t-73 170h-60v116q-98 2 -169 73t-71 171zM96 816q0 -56 40 -96t96 -40t96 40t40 96t-40 96t-96 40t-96 -40t-40 -96zM416 416q0 -40 28 -68t68 -28t68 28t28 68t-28 68 t-68 28t-68 -28t-28 -68zM416 1236q0 -40 28 -68t68 -28t68 28t28 68t-28 68t-68 28t-68 -28t-28 -68z" />
<glyph unicode="&#xeb;" horiz-adv-x="796" d="M-2 0v1640h216v-208q100 -2 171 -73t71 -171h60v-124q98 -2 169 -73t71 -171t-71 -171t-169 -73v-116h-60q-2 -100 -73 -170t-169 -72v-218h-216zM188 416q0 -40 28 -68t68 -28t68 28t28 68t-28 68t-68 28t-68 -28t-28 -68zM188 1236q0 -40 28 -68t68 -28t68 28t28 68 t-28 68t-68 28t-68 -28t-28 -68zM428 816q0 -56 40 -96t96 -40t96 40t40 96t-40 96t-96 40t-96 -40t-40 -96z" />
<glyph unicode="&#xec;" horiz-adv-x="358" d="M40 98v1446q40 0 68 28t28 68h232v-1640h-232q0 40 -28 69t-68 29z" />
<glyph unicode="&#xed;" horiz-adv-x="358" d="M-10 0v1640h232q0 -40 28 -68t68 -28v-1446q-40 0 -68 -29t-28 -69h-232z" />
<glyph unicode="&#xee;" horiz-adv-x="358" d="M40 98v1446q40 0 68 28t28 68h232v-40h-200q0 -40 -26 -66t-66 -26v-1374q38 0 65 -27t27 -67h200v-40h-232q0 40 -28 69t-68 29zM116 168v1306q36 0 61 25t25 61h166v-1480h-166q0 36 -25 62t-61 26z" />
<glyph unicode="&#xef;" horiz-adv-x="358" d="M-10 0v40h200q0 40 27 67t65 27v1374q-38 0 -65 26t-27 66h-200v40h232q0 -40 28 -68t68 -28v-1446q-40 0 -68 -29t-28 -69h-232zM-10 80v1480h166q0 -36 25 -61t61 -25v-1306q-36 0 -61 -26t-25 -62h-166z" />
<glyph unicode="&#xf0;" horiz-adv-x="358" d="M40 98v1446q40 0 68 28t28 68h232v-1640h-232q0 40 -28 69t-68 29zM128 204q0 -34 25 -59t59 -25q24 0 50 18l-116 116q-18 -26 -18 -50zM128 1430q0 -28 16 -50l118 118q-22 16 -50 16q-34 0 -59 -25t-25 -59zM162 272l118 -118q16 22 16 50q0 34 -25 59t-59 25 q-28 0 -50 -16zM162 1364q26 -18 50 -18q34 0 59 25t25 59q0 24 -18 50z" />
<glyph unicode="&#xf1;" horiz-adv-x="358" d="M-10 0v1640h232q0 -40 28 -68t68 -28v-1446q-40 0 -68 -29t-28 -69h-232zM62 204q0 -28 16 -50l118 118q-22 16 -50 16q-34 0 -59 -25t-25 -59zM62 1430q0 -34 25 -59t59 -25q24 0 50 18l-116 116q-18 -26 -18 -50zM96 138q26 -18 50 -18q34 0 59 25t25 59q0 24 -18 50z M96 1498l118 -118q16 22 16 50q0 34 -25 59t-59 25q-28 0 -50 -16z" />
<glyph unicode="&#xf2;" horiz-adv-x="216" d="M-10 0v1640h236v-1640h-236z" />
<glyph unicode="&#xf3;" horiz-adv-x="216" d="M-10 0v40h236v-40h-236zM-10 80v1480h236v-1480h-236zM-10 1600v40h236v-40h-236z" />
<glyph unicode="&#xf4;" horiz-adv-x="438" d="M40 98v1446q40 0 68 28t28 68h312v-40h-280q0 -40 -26 -66t-66 -26v-1374q38 0 65 -27t27 -67h280v-40h-312q0 40 -28 69t-68 29zM116 168v1306q36 0 61 25t25 61h246v-1480h-246q0 36 -25 62t-61 26zM228 204q0 -34 25 -59t59 -25q24 0 50 18l-116 116q-18 -26 -18 -50z M228 1430q0 -28 16 -50l118 118q-22 16 -50 16q-34 0 -59 -25t-25 -59zM262 272l118 -118q16 22 16 50q0 34 -25 59t-59 25q-28 0 -50 -16zM262 1364q26 -18 50 -18q34 0 59 25t25 59q0 24 -18 50z" />
<glyph unicode="&#xf5;" horiz-adv-x="438" d="M-10 0v40h280q0 40 27 67t65 27v1374q-38 0 -65 26t-27 66h-280v40h312q0 -40 28 -68t68 -28v-1446q-40 0 -68 -29t-28 -69h-312zM-10 80v1480h246q0 -36 25 -61t61 -25v-1306q-36 0 -61 -26t-25 -62h-246zM42 204q0 -28 16 -50l118 118q-22 16 -50 16q-34 0 -59 -25 t-25 -59zM42 1430q0 -34 25 -59t59 -25q24 0 50 18l-116 116q-18 -26 -18 -50zM76 138q26 -18 50 -18q34 0 59 25t25 59q0 24 -18 50zM76 1498l118 -118q16 22 16 50q0 34 -25 59t-59 25q-28 0 -50 -16z" />
<glyph unicode="&#xf6;" horiz-adv-x="296" d="M-10 0v1640h316v-1640h-316z" />
<glyph unicode="&#xf7;" horiz-adv-x="632" d="M-10 0v1640h652v-1640h-652zM36 1138q0 -28 18 -46t44 -18q34 0 52 24h126q-8 -186 -8 -306q0 -106 4 -258t8 -250l6 -100l28 -72l32 72q18 370 18 608l-10 306h126q18 -24 50 -24q26 0 45 19t19 45t-19 45t-45 19q-30 0 -50 -26h-126v206q24 18 24 52q0 28 -18 46 t-44 18q-28 0 -46 -19t-18 -45q0 -34 24 -52v-206h-126q-20 26 -52 26q-26 0 -44 -18t-18 -46z" />
<glyph unicode="&#xf8;" horiz-adv-x="296" d="M-10 0v1640h316v-1640h-316z" />
<glyph unicode="&#xf9;" horiz-adv-x="1450" d="M-10 0v1640h1470v-1640h-1470zM46 820q0 -78 61 -138t137 -60q122 0 302 144l-54 42q-160 -122 -248 -122q-54 0 -93 43t-39 91q0 54 37 93t95 39q72 0 178 -72t178 -144l70 -70l44 50q-10 12 -30 33t-76 73t-111 91t-125 72t-128 33q-80 0 -139 -62t-59 -136zM526 340 q0 -80 62 -139t138 -59q80 0 139 60t59 138q0 118 -144 298l-44 -50q122 -154 122 -248q0 -54 -39 -94t-93 -40q-56 0 -95 39t-39 95q0 70 72 176t144 176l70 72l-48 44q-12 -10 -33 -30t-73 -77t-92 -111t-73 -124t-33 -126zM526 1300q0 -24 4 -48t9 -42t17 -42t19 -37 t24 -37t23 -32t26 -34t24 -30l42 54q-122 156 -122 248q0 56 39 95t95 39q46 0 89 -41t43 -93q0 -78 -72 -184t-144 -174l-72 -68l52 -44q12 12 33 32t73 79t91 114t72 124t33 121q0 82 -58 140t-140 58t-141 -58t-59 -140zM634 820q50 -42 92 -92q50 56 90 92 q-50 42 -92 92q-50 -56 -90 -92zM736 924q290 -302 470 -302q82 0 140 58t58 140t-58 140t-140 58q-120 0 -300 -144l48 -44q156 122 252 122q64 0 98 -39t34 -93q0 -60 -36 -97t-96 -37q-150 0 -426 288z" />
<glyph unicode="&#xfa;" horiz-adv-x="1450" d="M-10 0v40h1470v-40h-1470zM-10 80v1480h1470v-1480h-1470zM-10 1600v40h1470v-40h-1470zM46 820q0 -78 61 -138t137 -60q122 0 302 144l-54 42q-160 -122 -248 -122q-54 0 -93 43t-39 91q0 54 37 93t95 39q72 0 178 -72t178 -144l70 -70l44 50q-10 12 -30 33t-76 73 t-111 91t-125 72t-128 33q-80 0 -139 -62t-59 -136zM526 340q0 -80 62 -139t138 -59q80 0 139 60t59 138q0 118 -144 298l-44 -50q122 -154 122 -248q0 -54 -39 -94t-93 -40q-56 0 -95 39t-39 95q0 70 72 176t144 176l70 72l-48 44q-12 -10 -33 -30t-73 -77t-92 -111 t-73 -124t-33 -126zM526 1300q0 -24 4 -48t9 -42t17 -42t19 -37t24 -37t23 -32t26 -34t24 -30l42 54q-122 156 -122 248q0 56 39 95t95 39q46 0 89 -41t43 -93q0 -78 -72 -184t-144 -174l-72 -68l52 -44q12 12 33 32t73 79t91 114t72 124t33 121q0 82 -58 140t-140 58 t-141 -58t-59 -140zM634 820q50 -42 92 -92q50 56 90 92q-50 42 -92 92q-50 -56 -90 -92zM736 924q290 -302 470 -302q82 0 140 58t58 140t-58 140t-140 58q-120 0 -300 -144l48 -44q156 122 252 122q64 0 98 -39t34 -93q0 -60 -36 -97t-96 -37q-150 0 -426 288z" />
<glyph unicode="&#xfb;" horiz-adv-x="1742" d="M-10 0v40h156l696 780l-696 780h-156v40h180l702 -786l700 786h180v-40h-156l-696 -780l696 -780h156v-40h-180l-700 786l-702 -786h-180zM-10 80v1480h136l660 -740l-660 -740h-136zM416 820q0 -44 32 -77t78 -33t78 33t32 77t-32 77t-78 33t-78 -33t-32 -77zM956 820 l660 740h136v-1480h-138zM1106 820q0 -44 33 -77t77 -33t77 33t33 77t-33 77t-77 33t-77 -33t-33 -77z" />
<glyph unicode="&#xfc;" horiz-adv-x="1742" d="M-10 0v1640h180l702 -786l700 786h180v-1640h-180l-700 786l-702 -786h-180zM416 820q0 -44 32 -77t78 -33t78 33t32 77t-32 77t-78 33t-78 -33t-32 -77zM1106 820q0 -44 33 -77t77 -33t77 33t33 77t-33 77t-77 33t-77 -33t-33 -77z" />
<glyph unicode="&#xfd;" horiz-adv-x="1402" d="M-10 0v1640h1422v-1640h-1422zM50 644q0 -54 41 -91t99 -37q112 0 238 98q216 166 216 214q0 34 -60 96t-154 118q-166 98 -240 98q-60 0 -100 -37t-40 -91q0 -58 31 -115t31 -69q0 -10 -31 -68t-31 -116zM388 296q0 -60 36 -101t90 -41q60 0 117 31t69 31q10 0 68 -31 t118 -31q52 0 90 40t38 98q0 108 -108 246q-164 212 -216 212q-28 0 -92 -69t-114 -151q-96 -160 -96 -234zM388 1362q0 -86 100 -236q64 -98 123 -159t95 -61q56 0 212 228q96 140 96 232q0 58 -38 97t-90 39q-62 0 -118 -31t-68 -31t-69 31t-117 31q-54 0 -90 -41t-36 -99 zM756 828q0 -32 66 -95t160 -119q160 -98 234 -98q56 0 96 37t40 89q0 62 -31 118t-31 68t31 69t31 117q0 54 -41 90t-99 36q-106 0 -234 -98q-222 -168 -222 -214z" />
<glyph unicode="&#xfe;" horiz-adv-x="1402" d="M-10 0v40h1422v-40h-1422zM-10 80v1480h1422v-1480h-1422zM-10 1600v40h1422v-40h-1422zM50 644q0 -54 41 -91t99 -37q112 0 238 98q216 166 216 214q0 34 -60 96t-154 118q-166 98 -240 98q-60 0 -100 -37t-40 -91q0 -58 31 -115t31 -69q0 -10 -31 -68t-31 -116z M388 296q0 -60 36 -101t90 -41q60 0 117 31t69 31q10 0 68 -31t118 -31q52 0 90 40t38 98q0 108 -108 246q-164 212 -216 212q-28 0 -92 -69t-114 -151q-96 -160 -96 -234zM388 1362q0 -86 100 -236q64 -98 123 -159t95 -61q56 0 212 228q96 140 96 232q0 58 -38 97t-90 39 q-62 0 -118 -31t-68 -31t-69 31t-117 31q-54 0 -90 -41t-36 -99zM756 828q0 -32 66 -95t160 -119q160 -98 234 -98q56 0 96 37t40 89q0 62 -31 118t-31 68t31 69t31 117q0 54 -41 90t-99 36q-106 0 -234 -98q-222 -168 -222 -214z" />
<glyph unicode="&#xff;" horiz-adv-x="296" d="M-10 0v40h316v-40h-316zM-10 80v1480h316v-1480h-316zM-10 1600v40h316v-40h-316z" />
<glyph unicode="&#x2000;" horiz-adv-x="1026" />
<glyph unicode="&#x2001;" horiz-adv-x="2052" />
<glyph unicode="&#x2002;" horiz-adv-x="1026" />
<glyph unicode="&#x2003;" horiz-adv-x="2052" />
<glyph unicode="&#x2004;" horiz-adv-x="684" />
<glyph unicode="&#x2005;" horiz-adv-x="513" />
<glyph unicode="&#x2006;" horiz-adv-x="342" />
<glyph unicode="&#x2007;" horiz-adv-x="342" />
<glyph unicode="&#x2008;" horiz-adv-x="256" />
<glyph unicode="&#x2009;" horiz-adv-x="410" />
<glyph unicode="&#x200a;" horiz-adv-x="114" />
<glyph unicode="&#x2010;" horiz-adv-x="690" d="M-10 0v1640h710v-1640h-710zM48 780h594v192h-594v-192z" />
<glyph unicode="&#x2011;" horiz-adv-x="690" d="M-10 0v1640h710v-1640h-710zM48 780h594v192h-594v-192z" />
<glyph unicode="&#x2012;" horiz-adv-x="690" d="M-10 0v1640h710v-1640h-710zM48 780h594v192h-594v-192z" />
<glyph unicode="&#x2013;" horiz-adv-x="1004" d="M-10 0v1640h1024v-1640h-1024zM74 780h856v192h-856v-192z" />
<glyph unicode="&#x2014;" horiz-adv-x="2028" d="M-10 0v1640h2048v-1640h-2048zM157 780h1714v192h-1714v-192z" />
<glyph unicode="&#x2018;" horiz-adv-x="296" d="M-10 0v1640h316v-1640h-316zM50 1208h196v192h-76v120l-120 -120v-192z" />
<glyph unicode="&#x2019;" horiz-adv-x="296" d="M-10 0v1640h316v-1640h-316zM50 1328h76l2 -120l118 120v192h-196v-192z" />
<glyph unicode="&#x201c;" horiz-adv-x="296" d="M-10 0v40h316v-40h-316zM-10 80v1480h316v-1480h-316zM-10 1600v40h316v-40h-316zM50 1208h196v192h-76v120l-120 -120v-192z" />
<glyph unicode="&#x201d;" horiz-adv-x="296" d="M-10 0v40h316v-40h-316zM-10 80v1480h316v-1480h-316zM-10 1600v40h316v-40h-316zM50 1328h76l2 -120l118 120v192h-196v-192z" />
<glyph unicode="&#x202f;" horiz-adv-x="410" />
<glyph unicode="&#x205f;" horiz-adv-x="513" />
<glyph unicode="&#x25fc;" horiz-adv-x="1640" d="M0 0v1640h1640v-1640h-1640z" />
</font>
</defs>
</svg>
